<svg xmlns="http://www.w3.org/2000/svg" viewBox="0 0 633 246" width="506" height="197"><defs><symbol id="mk" viewBox="107 393 822 809"><g><path d="M0 0 C1.299 0.047 2.599 0.094 3.938 0.143 C4.605 0.172 5.273 0.202 5.961 0.233 C7.995 0.324 10.028 0.399 12.062 0.471 C26.409 1.033 26.409 1.033 32.121 2.59 C34.512 3.127 36.621 2.92 39.062 2.762 C45.388 2.702 50.768 4.432 56 8.012 C57.963 10.794 59.333 13.552 60.438 16.762 C64.251 27.214 67.596 33.522 77.816 38.801 C80.045 40.037 81.976 41.468 84 43.012 C84.722 43.362 85.444 43.713 86.188 44.074 C88 45.012 88 45.012 89 47.012 C89.309 47.146 89.309 47.146 90.875 47.824 C93.65 49.375 94.41 51.296 96 54.012 C96.722 54.465 97.444 54.919 98.188 55.387 C100.545 57.501 100.208 58.765 99.996 61.797 C100.001 64.607 100.603 67.14 101.188 69.887 C102.226 75.849 101.554 79.6 99 85.012 C98.622 85.87 98.245 86.729 97.855 87.613 C95.514 92.654 93.133 96.214 89 100.012 C88.704 100.646 88.407 101.28 88.102 101.934 C83.914 109.833 72.639 114.192 65 118.012 C64.298 119.664 63.63 121.331 63 123.012 C62.67 123.342 62.34 123.672 62 124.012 C59.745 133.091 62.124 142.241 63.875 151.199 C64.19 152.862 64.505 154.524 64.819 156.186 C67.967 172.604 71.715 188.888 75.61 205.142 C76.509 208.895 77.355 212.651 78.137 216.43 C79 220.012 79 220.012 81 223.012 C81.379 225.063 81.683 227.129 81.938 229.199 C82.486 233.185 83.091 236.692 84.688 240.387 C86.177 244.5 86.278 246.839 85 251.012 C82.855 252.047 81.174 252.002 78.812 252.137 C77 253.012 77 253.012 76.379 255.973 C75.841 260.491 76.017 264.973 76.125 269.512 C76.226 277.244 75.491 284.052 73.723 291.594 C72.811 295.904 72.552 300.128 72.406 304.523 C72 307.012 72 307.012 70.547 308.891 C68.367 311.88 68.258 314.615 67.75 318.262 C66.177 328.079 62.528 337.186 57.375 345.695 C56.051 347.925 55.25 349.914 54.5 352.387 C50.937 363.543 50.937 363.543 48 365.012 C47.36 366.531 46.787 368.078 46.25 369.637 C44.375 374.543 42.011 378.551 38 382.012 C37.34 382.012 36.68 382.012 36 382.012 C36 382.672 36 383.332 36 384.012 C35.34 384.012 34.68 384.012 34 384.012 C33.879 384.71 33.758 385.409 33.633 386.129 C33.549 386.584 33.549 386.584 33.125 388.887 C32.963 389.792 32.8 390.697 32.633 391.629 C32 394.012 32 394.012 30 396.012 C29.162 398.06 28.48 400.135 27.781 402.234 C27 404.012 27 404.012 25 405.012 C24.321 407.007 23.654 409.008 23 411.012 C22.34 411.672 21.68 412.332 21 413.012 C20.327 414.533 19.709 416.079 19.125 417.637 C17.573 421.65 15.832 425.461 13.867 429.285 C12.767 431.476 11.891 433.728 11 436.012 C10.714 436.587 10.428 437.162 10.133 437.754 C-0.473 459.54 -1.213 485.782 -1.188 509.512 C-1.188 510.291 -1.188 511.07 -1.189 511.873 C-1.17 543.188 -1.17 543.188 2 555.012 C2.309 555.025 2.309 555.025 3.871 555.09 C15.494 555.868 26.265 560.987 32.777 570.965 C33.181 571.64 33.584 572.316 34 573.012 C34.517 573.873 35.034 574.734 35.566 575.621 C38.668 581.032 40.843 585.879 42 592.012 C44.249 592.093 46.5 592.151 48.75 592.199 C49.376 592.217 49.376 592.217 52.547 592.305 C56.282 591.988 57.211 591.309 60 589.012 C62.262 588.641 62.262 588.641 64.688 588.574 C68.404 588.326 70.869 587.737 74.125 585.949 C79.613 583.234 85.241 583.766 91.191 583.945 C94.245 583.999 96.938 583.856 99.938 583.387 C105.725 582.604 110.894 584.349 116.375 586.074 C119.624 586.914 122.36 587.197 125.688 587.387 C130.341 587.729 131.894 588.462 135 592.012 C137.33 592.367 139.663 592.703 142 593.012 C142.33 594.002 142.66 594.992 143 596.012 C145.021 596.24 147.044 596.464 149.07 596.637 C151.864 597.18 152.57 598.652 154 601.012 C156.188 602.262 156.188 602.262 158 603.012 C157.938 604.824 157.938 604.824 157 607.012 C153.64 608.725 150.48 609.868 146.875 610.949 C143.627 612.15 141.632 613.785 139 616.012 C134.974 618.865 131.626 619.576 126.75 620.137 C120.087 620.925 120.087 620.925 119 622.012 C116.795 622.198 114.585 622.335 112.375 622.449 C104.775 622.88 104.775 622.88 101.125 624.449 C96.663 625.252 94.894 623.343 91.504 620.59 C90 619.012 90 619.012 90 617.012 C89.67 617.507 89.34 618.002 89 618.512 C84.541 621.856 77.221 619.882 72 619.012 C72 618.352 72 617.692 72 617.012 C71.536 617.032 71.536 617.032 69.188 617.137 C66 617.012 66 617.012 63 615.012 C62.67 614.022 62.34 613.032 62 612.012 C59.438 611.324 59.438 611.324 57 611.012 C56.67 612.662 56.34 614.312 56 616.012 C41.34 616.035 26.68 616.053 12.02 616.064 C5.208 616.069 -1.604 616.076 -8.417 616.087 C-60.418 616.173 -60.418 616.173 -86.327 615.437 C-106.238 614.876 -126.142 614.933 -146.059 614.994 C-157.063 615.027 -168.067 615.035 -179.07 615.039 C-180.17 615.039 -181.269 615.04 -182.402 615.04 C-203.411 615.044 -224.416 614.893 -245.424 614.606 C-247.786 614.575 -250.148 614.544 -252.51 614.514 C-256.19 614.467 -259.87 614.415 -263.55 614.359 C-265.477 614.33 -267.404 614.304 -269.331 614.277 C-279.86 614.099 -290.456 613.743 -300.914 612.449 C-308.361 611.651 -315.896 611.945 -323.375 612.012 C-326.424 612.038 -329.474 612.058 -332.523 612.074 C-333.215 612.083 -333.907 612.091 -334.619 612.099 C-337.924 612.116 -340.827 611.931 -344 611.012 C-351.529 610.711 -358.97 610.915 -366.453 611.781 C-380.957 613.094 -380.957 613.094 -386 610.012 C-385.333 608.012 -384.667 606.012 -384 604.012 C-383.903 603.656 -383.903 603.656 -383.41 601.855 C-381.378 594.833 -378.022 590.347 -372.25 585.887 C-368.44 582.711 -367.913 580.274 -368.25 575.387 C-369.125 571.449 -369.739 569.534 -373.562 567.949 C-374.367 567.64 -375.171 567.33 -376 567.012 C-376.33 566.352 -376.66 565.692 -377 565.012 C-378.655 563.993 -380.323 562.994 -382 562.012 C-384.771 559.241 -384.531 556.831 -385 553.012 C-386 550.012 -386 550.012 -388.25 549.137 C-391.707 547.722 -393.391 545.681 -396 543.012 C-398.081 541.475 -400.188 539.992 -402.328 538.539 C-404.309 536.729 -404.387 535.552 -405 533.012 C-405.99 532.682 -406.98 532.352 -408 532.012 C-408.041 532.94 -408.082 533.868 -408.125 534.824 C-409.312 539.148 -411.116 539.07 -415 541.012 C-416.035 543.33 -417.036 545.663 -418 548.012 C-420.5 549.637 -420.5 549.637 -423 551.012 C-423.495 551.878 -423.99 552.744 -424.5 553.637 C-426 556.012 -426 556.012 -428.438 556.449 C-432.253 557.287 -432.978 559.815 -435 563.012 C-436.325 563.694 -437.658 564.362 -439 565.012 C-439.454 565.816 -439.908 566.62 -440.375 567.449 C-442.436 570.699 -444.55 571.43 -448 573.012 C-448.536 573.548 -449.072 574.084 -449.625 574.637 C-451 576.012 -451 576.012 -453.062 576.449 C-455 577.012 -455 577.012 -455.855 578.887 C-457.281 581.534 -458.6 582.209 -461.25 583.574 C-462.054 583.998 -462.859 584.422 -463.688 584.859 C-465.526 585.776 -467.385 586.651 -469.25 587.512 C-472.441 589.252 -474.505 591.386 -477 594.012 C-480.621 597.012 -480.621 597.012 -483 597.012 C-483 597.672 -483 598.332 -483 599.012 C-484.963 600.098 -486.992 600.937 -489.055 601.816 C-491 603.012 -491 603.012 -491.973 604.984 C-493.345 607.692 -494.87 608.23 -497.562 609.574 C-507.768 615.423 -515.388 626.269 -517 638.012 C-516.766 640.949 -516.766 640.949 -516.25 644.012 C-516.17 644.517 -516.17 644.517 -515.766 647.074 C-512.848 658.269 -499.648 667.485 -489.312 671.699 C-483.361 673.707 -477.157 674.832 -471 676.012 C-469.957 676.221 -468.914 676.429 -467.84 676.645 C-453.334 679.249 -435.859 679.447 -421.375 676.473 C-417.961 675.81 -414.667 676.042 -411.207 676.172 C-409 676.012 -409 676.012 -407 674.012 C-403.439 673.308 -399.889 672.753 -396.297 672.244 C-391.946 671.563 -389.487 670.806 -386 668.012 C-383.773 667.824 -383.773 667.824 -381.375 668.012 C-375.208 668.222 -369.521 666.772 -364 664.012 C-362.638 663.873 -361.27 663.787 -359.902 663.73 C-359.101 663.693 -358.3 663.656 -357.475 663.617 C-355.779 663.547 -354.084 663.476 -352.389 663.406 C-346.101 663.112 -346.101 663.112 -345 662.012 C-333.588 661.016 -333.588 661.016 -329 665.012 C-328.67 665.507 -328.67 665.507 -327 668.012 C-325.131 668.035 -323.261 668.044 -321.394 667.974 C-316.838 668.046 -312.475 669.27 -308.062 670.324 C-307.125 670.538 -306.187 670.751 -305.221 670.971 C-296.478 673.006 -288.326 675.654 -280.25 679.574 C-276.211 681.511 -272.185 683.406 -268 685.012 C-268.205 686.941 -268.205 686.941 -269 689.012 C-271.034 689.772 -271.034 689.772 -273.727 690.141 C-274.725 690.288 -275.723 690.435 -276.751 690.586 C-277.823 690.727 -278.895 690.867 -280 691.012 C-282.175 691.333 -284.349 691.654 -286.523 691.977 C-289.947 692.465 -293.371 692.949 -296.797 693.424 C-316.893 696.31 -316.893 696.31 -324 700.012 C-326.428 700.333 -328.825 700.45 -331.27 700.57 C-334.16 701.038 -336.443 702.098 -339.093 703.301 C-343.114 704.799 -347.439 704.849 -351.684 705.184 C-356.702 705.655 -360.442 706.848 -365 709.012 C-369.305 710.447 -373.527 711.27 -378 711.949 C-381.575 712.507 -384.169 713.087 -387.5 714.574 C-391.696 716.298 -395.323 716.428 -399.816 716.703 C-405.025 717.208 -409.957 718.666 -415 720.012 C-422.041 721.752 -428.952 722.384 -436.191 722.766 C-438.871 722.939 -441.457 723.183 -444.113 723.52 C-463.653 725.754 -486.679 725.808 -505.219 718.406 C-509.762 716.597 -514.097 716.557 -518.949 716.418 C-522.387 715.96 -524.175 714.98 -527 713.012 C-527.706 712.528 -528.413 712.045 -529.141 711.547 C-529.489 711.304 -529.489 711.304 -531.25 710.074 C-535.088 707.473 -538.923 705.614 -543.25 703.969 C-545 703.012 -545 703.012 -546 700.012 C-546.66 700.012 -547.32 700.012 -548 700.012 C-548 699.352 -548 698.692 -548 698.012 C-550.31 697.682 -552.62 697.352 -555 697.012 C-555 696.352 -555 695.692 -555 695.012 C-555.66 695.012 -556.32 695.012 -557 695.012 C-557 694.352 -557 693.692 -557 693.012 C-557.66 693.012 -558.32 693.012 -559 693.012 C-559 692.352 -559 691.692 -559 691.012 C-559.66 691.012 -560.32 691.012 -561 691.012 C-561 690.352 -561 689.692 -561 689.012 C-561.66 689.012 -562.32 689.012 -563 689.012 C-563 688.352 -563 687.692 -563 687.012 C-563.66 687.012 -564.32 687.012 -565 687.012 C-569 681.6 -569 681.6 -569 679.012 C-569.66 679.012 -570.32 679.012 -571 679.012 C-572.254 676.562 -572.254 676.562 -573.562 673.324 C-573.997 672.268 -574.431 671.213 -574.879 670.125 C-577.363 663.228 -577.183 656.579 -577.188 649.324 C-577.2 648.171 -577.212 647.018 -577.225 645.83 C-577.227 644.731 -577.228 643.632 -577.23 642.5 C-577.235 641.495 -577.239 640.49 -577.243 639.454 C-577 637.012 -577 637.012 -575 635.012 C-574.445 631.742 -574.108 628.473 -573.758 625.176 C-572.876 621.492 -571.704 620.556 -569 618.012 C-567.394 614.796 -566.04 611.521 -564.66 608.203 C-562.864 604.75 -560.861 602.623 -558 600.012 C-557.196 599.187 -556.391 598.362 -555.562 597.512 C-552.829 594.845 -549.933 592.456 -547 590.012 C-546.154 589.166 -545.309 588.32 -544.438 587.449 C-542 585.012 -542 585.012 -539.312 582.949 C-537 581.012 -537 581.012 -536 578.887 C-534.584 576.232 -532.759 576.102 -530 575.012 C-528.311 573.368 -526.647 571.697 -525 570.012 C-517.556 563.872 -509.269 557.865 -500.5 553.824 C-496.826 551.922 -495.473 550.227 -493 547.012 C-491.018 545.976 -489.015 544.981 -487 544.012 C-479.931 539.29 -479.931 539.29 -477.449 535.883 C-476 534.012 -476 534.012 -473 533.012 C-471.974 531.361 -470.977 529.692 -470 528.012 C-467.618 525.332 -466.434 524.156 -463 523.012 C-462.34 522.022 -461.68 521.032 -461 520.012 C-460.34 520.012 -459.68 520.012 -459 520.012 C-459 519.352 -459 518.692 -459 518.012 C-458.01 517.352 -457.02 516.692 -456 516.012 C-455.032 514.238 -454.066 512.464 -453.109 510.684 C-451.542 508.321 -449.447 507.364 -447 506.012 C-445.813 503.824 -445.813 503.824 -445 502.012 C-444.34 502.012 -443.68 502.012 -443 502.012 C-442.752 501.352 -442.505 500.692 -442.25 500.012 C-440.813 496.564 -438.862 494.071 -436.59 491.133 C-433.722 487.307 -431.019 483.267 -429.047 478.902 C-428 477.012 -428 477.012 -425 475.012 C-424.311 472.685 -423.645 470.351 -423 468.012 C-421.437 465.762 -421.437 465.762 -420 464.012 C-419.67 463.022 -419.34 462.032 -419 461.012 C-418.01 460.352 -417.02 459.692 -416 459.012 C-415.191 456.586 -415.191 456.586 -414.562 453.699 C-413.439 449.129 -412.019 446.635 -409 443.012 C-408.632 440.684 -408.298 438.35 -408 436.012 C-407.527 435.405 -407.054 434.797 -406.566 434.172 C-404.632 431.504 -404.175 429.225 -403.5 426.012 C-402.616 421.801 -401.571 419.402 -399 416.012 C-398.34 413.539 -398.34 413.539 -397.938 410.949 C-397.39 407.484 -397.004 406.017 -395 403.012 C-394.34 403.012 -393.68 403.012 -393 403.012 C-392.853 402.357 -392.706 401.702 -392.555 401.027 C-390.72 393.56 -388.1 386.556 -384 380.012 C-383.34 380.012 -382.68 380.012 -382 380.012 C-382.099 379.165 -382.199 378.318 -382.301 377.445 C-381.911 372.991 -379.871 370.467 -377.188 367.074 C-373.666 362.538 -371.162 358.395 -369 353.012 C-368.041 351.198 -367.044 349.403 -366 347.637 C-365.505 346.783 -365.01 345.93 -364.5 345.051 C-363 343.012 -363 343.012 -360 342.012 C-360 341.352 -360 340.692 -360 340.012 C-359.34 340.012 -358.68 340.012 -358 340.012 C-357.314 338.688 -356.652 337.352 -356 336.012 C-354.672 334.341 -353.338 332.674 -352 331.012 C-351.505 330.125 -351.01 329.238 -350.5 328.324 C-348.827 325.744 -347.689 325.313 -345 324.012 C-344.713 323.405 -344.425 322.797 -344.129 322.172 C-342.42 318.901 -339.708 317.085 -336.875 314.793 C-334.95 312.964 -334.14 311.373 -333 309.012 C-331.667 308.678 -330.333 308.345 -329 308.012 C-328.315 306.688 -327.651 305.353 -327 304.012 C-322.667 300.012 -322.667 300.012 -319 300.012 C-318.691 299.207 -318.381 298.403 -318.062 297.574 C-317 295.012 -317 295.012 -314.875 294.199 C-314.566 294.168 -314.566 294.168 -313 294.012 C-313 293.352 -313 292.692 -313 292.012 C-312.01 291.682 -311.02 291.352 -310 291.012 C-309.34 290.022 -308.68 289.032 -308 288.012 C-305.696 286.945 -303.36 285.948 -301 285.012 C-298.353 283.909 -297.248 283.357 -295.562 281.012 C-293.628 278.536 -291.902 278.1 -289 277.012 C-288.54 276.537 -288.08 276.063 -287.605 275.574 C-285.773 273.791 -284.169 273.046 -281.812 272.074 C-269.375 266.761 -269.375 266.761 -268 264.012 C-265.661 262.788 -263.34 261.66 -260.938 260.574 C-260.249 260.258 -259.561 259.941 -258.852 259.615 C-254.961 257.843 -251.064 256.237 -247.027 254.824 C-243.202 253.291 -239.581 251.317 -235.93 249.414 C-233.003 248.013 -230.081 247.017 -227 246.012 C-226.175 245.517 -225.35 245.022 -224.5 244.512 C-222 243.012 -222 243.012 -219.312 242.137 C-215.462 240.829 -212.018 239.034 -208.406 237.18 C-205.676 235.855 -202.882 234.948 -200 234.012 C-199.34 233.352 -198.68 232.692 -198 232.012 C-194.788 230.545 -191.537 229.226 -188.258 227.918 C-179.624 224.42 -171.669 220.202 -163.672 215.441 C-162.912 214.99 -162.151 214.538 -161.368 214.073 C-159.854 213.171 -158.344 212.264 -156.837 211.351 C-156.139 210.933 -155.442 210.516 -154.723 210.086 C-154.101 209.71 -153.48 209.335 -152.84 208.948 C-150.912 207.967 -149.091 207.531 -147 207.012 C-146.773 206.775 -146.773 206.775 -145.625 205.574 C-144 204.012 -144 204.012 -141.375 203.262 C-136.505 201.458 -133.006 198.253 -129 195.012 C-122.433 190.012 -122.433 190.012 -120 190.012 C-120 189.352 -120 188.692 -120 188.012 C-117.626 185.367 -115.436 183.271 -112.375 181.449 C-109.846 179.919 -108.71 178.374 -107 176.012 C-106.34 176.012 -105.68 176.012 -105 176.012 C-104.732 175.125 -104.464 174.238 -104.188 173.324 C-103 170.012 -103 170.012 -101.312 167.262 C-100.879 166.519 -100.446 165.777 -100 165.012 C-100.33 164.352 -100.66 163.692 -101 163.012 C-101.949 163.218 -102.898 163.424 -103.875 163.637 C-107 164.012 -107 164.012 -109 162.012 C-108.7 158.011 -108.464 157.321 -105 155.012 C-104.773 154.548 -104.773 154.548 -103.625 152.199 C-101.865 148.747 -99.757 146.696 -97 144.012 C-96.67 143.022 -96.34 142.032 -96 141.012 C-95.34 141.012 -94.68 141.012 -94 141.012 C-93.691 140.228 -93.381 139.444 -93.062 138.637 C-92 136.012 -92 136.012 -89 134.012 C-87.719 132.023 -87.719 132.023 -86.5 129.699 C-85.144 127.135 -83.812 124.733 -82.188 122.324 C-80.302 118.652 -80.107 115.835 -81.949 112.074 C-85.095 107.153 -85.095 107.153 -88.812 106.574 C-89.173 106.646 -89.173 106.646 -91 107.012 C-91.124 106.537 -91.124 106.537 -91.75 104.137 C-93.174 100.578 -93.663 100.427 -97 99.012 C-99.987 95.786 -101.336 92.021 -103 88.012 C-103.33 87.682 -103.66 87.352 -104 87.012 C-104.431 82.156 -104.589 77.284 -102 73.012 C-100.667 72.345 -99.333 71.678 -98 71.012 C-97.732 70.249 -97.464 69.485 -97.188 68.699 C-95.702 65.336 -93.889 64.254 -90.852 62.32 C-89 61.012 -89 61.012 -87.133 59.047 C-83.956 56.016 -80.193 54.466 -76.266 52.574 C-75.518 52.059 -74.77 51.543 -74 51.012 C-74 47.012 -74 47.012 -77 44.762 C-77.99 44.184 -78.98 43.607 -80 43.012 C-79.67 38.393 -76.644 37.344 -73 35.012 C-71.994 33.683 -70.993 32.35 -70 31.012 C-68.368 29.956 -66.692 28.968 -65 28.012 C-64.303 27.51 -63.605 27.009 -62.887 26.492 C-58.268 23.178 -55.813 21.728 -50 22.012 C-49.713 21.396 -49.425 20.779 -49.129 20.145 C-47.638 17.329 -46.344 17.041 -43.375 16.012 C-42.488 15.679 -41.601 15.347 -40.688 15.004 C-39.801 14.676 -38.914 14.349 -38 14.012 C-35.011 12.872 -32.745 11.74 -30 10.012 C-29.562 6.824 -29.562 6.824 -30 4.012 C-27.559 1.571 -21.232 2.544 -17.93 2.391 C-14 2.012 -14 2.012 -10.692 0.989 C-6.89 -0.017 -3.915 -0.153 0 0 Z M-115 460.012 C-115 460.672 -115 461.332 -115 462.012 C-115.846 462.094 -116.691 462.177 -117.562 462.262 C-121.802 463.187 -124.39 464.605 -128 467.012 C-128.33 468.002 -128.66 468.992 -129 470.012 C-130.984 470.724 -132.99 471.377 -135 472.012 C-137.476 473.167 -139.901 474.402 -142.332 475.648 C-144.131 476.568 -145.942 477.466 -147.762 478.344 C-148.645 478.77 -149.528 479.197 -150.438 479.637 C-151.241 480.021 -152.044 480.405 -152.871 480.801 C-157.476 483.42 -158.387 486.065 -160 491.012 C-160.33 491.177 -160.33 491.177 -162 492.012 C-163.07 494.227 -163.07 494.227 -164.125 496.949 C-164.478 497.845 -164.831 498.741 -165.195 499.664 C-166 502.012 -166 502.012 -166 504.012 C-166.66 504.012 -167.32 504.012 -168 504.012 C-170.228 506.983 -171.183 509.616 -171.875 513.199 C-173 517.012 -173 517.012 -175.438 518.262 C-176.283 518.509 -177.129 518.757 -178 519.012 C-179.031 520.321 -180.035 521.653 -181 523.012 C-181.495 523.177 -181.495 523.177 -184 524.012 C-184.227 525.064 -184.454 526.115 -184.688 527.199 C-185.734 531.592 -188.392 533.233 -192.027 535.652 C-194 537.012 -194 537.012 -195.523 538.641 C-197.948 540.892 -200.815 540.711 -204 541.012 C-204.381 543.003 -204.713 545.005 -205 547.012 C-202.77 549.241 -198.095 548.972 -195.078 549.414 C-192.164 549.98 -189.728 550.872 -187 552.012 C-186.34 552.012 -185.68 552.012 -185 552.012 C-184.34 553.002 -183.68 553.992 -183 555.012 C-180.758 555.891 -180.758 555.891 -178.125 556.574 C-174.878 557.432 -171.871 558.23 -169 560.012 C-168.375 562.512 -168.375 562.512 -168 565.012 C-166 567.012 -166 567.012 -163 567.012 C-162.885 567.736 -162.771 568.461 -162.652 569.207 C-161.978 572.107 -160.97 574.272 -159.562 576.887 C-157.482 580.903 -156.05 584.621 -155 589.012 C-154.34 589.012 -153.68 589.012 -153 589.012 C-153 589.672 -153 590.332 -153 591.012 C-150.522 592.251 -148.874 592.139 -146.102 592.141 C-145.59 592.143 -145.59 592.143 -143.002 592.151 C-142.445 592.15 -142.445 592.15 -139.625 592.145 C-138.472 592.145 -137.319 592.146 -136.131 592.147 C-133.676 592.148 -131.221 592.146 -128.767 592.142 C-125.071 592.137 -121.375 592.142 -117.68 592.148 C-86.794 592.158 -86.794 592.158 -72 590.012 C-71.01 590.012 -70.02 590.012 -69 590.012 C-66.957 589.882 -64.916 589.734 -62.875 589.574 C-61.8 589.493 -60.725 589.412 -59.617 589.328 C-57 589.012 -57 589.012 -56 588.012 C-55.572 583.941 -56.065 582.721 -59 580.012 C-60.291 577.277 -61.102 574.626 -61.875 571.699 C-62.739 568.866 -63.578 566.764 -64.938 564.199 C-67.314 559.669 -68.668 554.935 -70 550.012 C-70.66 550.012 -71.32 550.012 -72 550.012 C-72.247 549.042 -72.495 548.073 -72.75 547.074 C-74.335 541.542 -76.863 536.436 -79.301 531.238 C-83.107 523.043 -83.107 523.043 -84.188 518.949 C-85 516.012 -85 516.012 -87 514.012 C-87.667 512.012 -88.333 510.012 -89 508.012 C-89.628 506.732 -90.275 505.461 -90.938 504.199 C-93.13 499.945 -94.555 495.562 -96 491.012 C-97.062 487.949 -97.062 487.949 -98 486.012 C-98.66 486.012 -99.32 486.012 -100 486.012 C-101.498 483.615 -102.313 481.119 -103.25 478.449 C-105.783 471.609 -108.721 464.094 -115 460.012 Z " fill="#8675B0" transform="translate(728,435.98828125)"/></g><g><path d="M0 0 C2.375 3.097 2.375 3.097 2.375 5.5 C1.175 5.479 -0.025 5.458 -1.262 5.437 C-5.742 5.364 -10.222 5.318 -14.703 5.28 C-16.637 5.26 -18.571 5.233 -20.504 5.198 C-23.295 5.149 -26.084 5.127 -28.875 5.109 C-29.731 5.089 -30.586 5.068 -31.468 5.047 C-40.476 5.043 -46.463 8.148 -51.625 15.5 C-52.63 18.515 -52.728 20.542 -52.688 23.688 C-52.678 24.589 -52.669 25.49 -52.66 26.418 C-52.649 27.105 -52.637 27.792 -52.625 28.5 C-51.951 28.389 -51.278 28.279 -50.584 28.165 C-47.431 27.648 -44.278 27.136 -41.125 26.625 C-39.982 26.438 -38.839 26.251 -37.661 26.058 C-31.422 25.052 -25.227 24.221 -18.938 23.625 C-13.429 23.008 -9.136 21.646 -4.188 19.312 C1.581 16.641 5.275 15.578 11.375 17.5 C11.768 17.621 11.768 17.621 13.758 18.234 C25.115 22.293 35.634 29.388 42.375 39.5 C42.285 41.57 42.285 41.57 41.375 43.5 C39.371 44.555 39.371 44.555 36.812 45.375 C31.524 47.303 27.663 49.905 23.375 53.5 C22.721 54.032 22.068 54.565 21.395 55.113 C18.541 57.485 16.456 59.378 14.375 62.5 C19.355 61.962 22.861 59.611 27 57 C36.065 51.347 36.065 51.347 41.562 51.438 C42.821 51.458 44.079 51.479 45.375 51.5 C44.86 62.863 40.221 68.726 31.375 75.5 C27.103 78.081 22.683 80.274 18.188 82.438 C16.956 83.04 15.724 83.643 14.493 84.246 C6.674 88.046 -1.231 91.642 -9.25 95 C-10.173 95.392 -11.096 95.784 -12.048 96.187 C-12.469 96.357 -12.469 96.357 -14.602 97.219 C-15.335 97.517 -16.068 97.816 -16.823 98.123 C-17.417 98.247 -18.012 98.372 -18.625 98.5 C-19.285 97.84 -19.945 97.18 -20.625 96.5 C-19.95 95.692 -19.274 94.884 -18.578 94.051 C-17.677 92.971 -16.776 91.892 -15.875 90.812 C-15.432 90.282 -14.988 89.752 -14.531 89.205 C-11.857 86 -9.221 82.769 -6.625 79.5 C-12.021 81.65 -17.41 83.817 -22.789 86.008 C-24.943 86.88 -27.096 87.753 -29.25 88.625 C-30.33 89.067 -31.41 89.509 -32.523 89.965 C-38.182 92.249 -43.657 94.214 -49.625 95.5 C-43.458 79.644 -35.184 65.894 -23.625 53.5 C-21.541 50.882 -19.58 48.216 -17.625 45.5 C-25.222 47.096 -31.814 50.164 -38.76 53.574 C-49.049 58.279 -55.735 54.901 -65.188 49.75 C-65.986 49.332 -66.785 48.915 -67.607 48.484 C-78.726 42.54 -78.726 42.54 -82.625 38.5 C-82.688 34.938 -82.688 34.938 -81.625 31.5 C-81.295 29.85 -80.965 28.2 -80.625 26.5 C-82.935 26.335 -82.935 26.335 -94.625 25.5 C-94.625 24.84 -94.625 24.18 -94.625 23.5 C-94.14 23.51 -94.14 23.51 -91.688 23.562 C-88.625 23.5 -88.625 23.5 -87.625 22.5 C-88.615 22.5 -89.605 22.5 -90.625 22.5 C-90.5 20.562 -90.5 20.562 -89.625 18.5 C-86.562 17.75 -86.562 17.75 -83.625 17.5 C-83.625 18.82 -83.625 20.14 -83.625 21.5 C-82.965 19.52 -82.305 17.54 -81.625 15.5 C-84.373 14.244 -86.328 13.5 -89.375 13.5 C-90.117 13.5 -90.86 13.5 -91.625 13.5 C-91.955 12.84 -92.285 12.18 -92.625 11.5 C-72.739 0.407 -18.499 -20.347 0 0 Z M12.375 23.5 C12.375 25.5 12.375 25.5 14.465 27.156 C20.454 31.034 25.302 33.456 32.375 34.5 C31.07 30.586 30.054 30.955 26.375 29.5 C26.097 29.17 26.097 29.17 24.688 27.5 C21.117 24.412 16.952 24.164 12.375 23.5 Z M-44.625 34.5 C-44.955 36.48 -45.285 38.46 -45.625 40.5 C-44.305 40.5 -42.985 40.5 -41.625 40.5 C-41.625 39.84 -41.625 39.18 -41.625 38.5 C-42.285 38.5 -42.945 38.5 -43.625 38.5 C-43.955 37.18 -44.285 35.86 -44.625 34.5 Z M-34.625 40.5 C-34.625 41.16 -34.625 41.82 -34.625 42.5 C-33.965 42.5 -33.305 42.5 -32.625 42.5 C-32.625 41.84 -32.625 41.18 -32.625 40.5 C-33.285 40.5 -33.945 40.5 -34.625 40.5 Z M-45.625 44.5 C-45.625 45.16 -45.625 45.82 -45.625 46.5 C-44.965 46.5 -44.305 46.5 -43.625 46.5 C-43.625 45.84 -43.625 45.18 -43.625 44.5 C-44.285 44.5 -44.945 44.5 -45.625 44.5 Z " fill="#E9E1F4" transform="translate(776.625,451.5)"/>
<path d="M0 0 C1.094 -0.014 2.189 -0.028 3.316 -0.043 C6.55 0.196 8.688 0.447 11.438 2.188 C11.926 4.789 11.926 4.789 11.75 7.812 C11.705 8.815 11.66 9.818 11.613 10.852 C11.584 11.237 11.584 11.237 11.438 13.188 C12.428 13.517 13.418 13.848 14.438 14.188 C14.107 14.848 13.778 15.507 13.438 16.188 C14.097 16.517 14.758 16.848 15.438 17.188 C14.778 17.188 14.117 17.188 13.438 17.188 C13.438 18.178 13.438 19.168 13.438 20.188 C14.097 20.518 14.758 20.847 15.438 21.188 C15.438 21.847 15.438 22.508 15.438 23.188 C14.778 23.188 14.117 23.188 13.438 23.188 C13.149 23.806 12.86 24.425 12.562 25.062 C11.215 27.607 10.06 28.139 7.438 29.188 C7.438 28.528 7.438 27.867 7.438 27.188 C6.798 27.084 6.159 26.981 5.5 26.875 C3.438 26.188 3.438 26.188 2.438 23.188 C3.25 21 3.25 21 4.438 19.188 C5.097 19.188 5.758 19.188 6.438 19.188 C6.438 18.528 6.438 17.868 6.438 17.188 C-7.07 13.739 -19.15 12.606 -32.562 17.188 C-33.553 17.517 -34.543 17.848 -35.562 18.188 C-35.893 18.847 -36.222 19.508 -36.562 20.188 C-35.982 20.213 -35.402 20.239 -34.805 20.266 C-28.647 20.713 -23.639 21.79 -20.188 27.438 C-19.981 28.015 -19.775 28.592 -19.562 29.188 C-20.883 28.857 -22.202 28.528 -23.562 28.188 C-23.562 27.197 -23.562 26.207 -23.562 25.188 C-26.202 24.857 -28.842 24.528 -31.562 24.188 C-31.377 24.93 -31.191 25.673 -31 26.438 C-30.565 29.173 -30.758 30.594 -31.562 33.188 C-31.562 33.847 -31.562 34.508 -31.562 35.188 C-30.903 35.188 -30.242 35.188 -29.562 35.188 C-29.562 35.847 -29.562 36.508 -29.562 37.188 C-35.463 34.555 -41.041 29.176 -43.562 23.188 C-42.799 14.847 -33.955 10.391 -27.281 6.539 C-18.611 2.229 -9.662 0.057 0 0 Z M4.438 7.188 C4.438 7.848 4.438 8.507 4.438 9.188 C5.097 9.188 5.758 9.188 6.438 9.188 C6.438 8.527 6.438 7.868 6.438 7.188 C5.778 7.188 5.117 7.188 4.438 7.188 Z M7.438 11.188 C7.107 12.507 6.778 13.827 6.438 15.188 C7.263 15.517 7.263 15.517 11.438 17.188 C11.768 16.197 12.097 15.207 12.438 14.188 C11.778 13.858 11.117 13.527 10.438 13.188 C10.438 12.527 10.438 11.868 10.438 11.188 C9.447 11.188 8.457 11.188 7.438 11.188 Z M6.438 22.188 C6.438 22.847 6.438 23.508 6.438 24.188 C7.097 24.188 7.758 24.188 8.438 24.188 C8.438 23.528 8.438 22.867 8.438 22.188 C7.778 22.188 7.117 22.188 6.438 22.188 Z " fill="#E9E1F4" transform="translate(675.5625,493.8125)"/>
<path d="M0 0 C7.87 2.623 13.504 13.431 18 20 C18.576 20.834 19.152 21.668 19.746 22.527 C34.55 45.81 44.737 81.333 44 109 C39.779 109 39.387 107.344 36.875 104.062 C32.595 98.637 27.987 93.775 23 89 C22.973 91.312 22.954 93.625 22.938 95.938 C22.932 96.581 22.932 96.581 22.902 99.84 C23 103 23 103 24 104 C24.259 107.7 24.19 111.417 24.188 115.125 C24.187 115.669 24.187 115.669 24.185 118.419 C24.028 139.217 24.028 139.217 20.984 144.895 C19.885 147.245 19.735 148.924 19.621 151.504 C19.095 157.69 17.205 163.14 15.062 168.938 C14.664 170.026 14.266 171.114 13.856 172.235 C8.446 186.606 1.608 199.97 -8 212 C-8.727 212.951 -9.454 213.903 -10.203 214.883 C-15.714 222 -15.714 222 -18 222 C-18 222.66 -18 223.32 -18 224 C-22.318 228.659 -22.318 228.659 -25 230 C-23.293 221.961 -20.755 214.515 -17.602 206.938 C-16.498 204.273 -15.48 201.595 -14.523 198.875 C-11.888 191.403 -9.045 184.942 -4.543 178.344 C-2.564 175.338 -1.284 172.353 0 169 C0.33 168.34 0.66 167.68 1 167 C3.285 166.805 3.285 166.805 6.062 166.875 C6.982 166.893 7.901 166.911 8.848 166.93 C9.558 166.953 10.268 166.976 11 167 C10.67 167.66 10.34 168.32 10 169 C9.34 169 8.68 169 8 169 C8 169.99 8 170.98 8 172 C8.66 172 9.32 172 10 172 C10 171.34 10 170.68 10 170 C10.99 170 11.98 170 13 170 C12.67 169.01 12.34 168.02 12 167 C12.66 167 13.32 167 14 167 C14 166.34 14 165.68 14 165 C11.03 164.67 8.06 164.34 5 164 C5 163.01 5 162.02 5 161 C5.66 161 6.32 161 7 161 C7 160.34 7 159.68 7 159 C10.875 159.75 10.875 159.75 12 162 C12.99 161.67 13.98 161.34 15 161 C15.688 158.438 15.688 158.438 16 156 C14.68 155.34 13.36 154.68 12 154 C12.33 152.35 12.66 150.7 13 149 C14.32 149.66 15.64 150.32 17 151 C17.66 150.01 18.32 149.02 19 148 C18.34 147.67 17.68 147.34 17 147 C17.495 145.845 17.495 145.845 20 140 C19.34 140 18.68 140 18 140 C18 139.34 18 138.68 18 138 C18.66 137.67 19.32 137.34 20 137 C19.67 136.01 19.34 135.02 19 134 C18.34 134 17.68 134 17 134 C17 134.66 17 135.32 17 136 C16.34 136 15.68 136 15 136 C16.249 132.541 17.675 129.853 20 127 C19.34 126.67 18.68 126.34 18 126 C18.66 126 19.32 126 20 126 C19.856 125.01 19.711 124.02 19.562 123 C19.475 122.366 19.387 121.732 19.297 121.078 C19.096 119.669 18.876 118.263 18.641 116.859 C17.78 111.329 17.78 111.329 20 108 C19.598 107.876 19.598 107.876 17.562 107.25 C14.486 105.749 14.518 105.212 14 102 C13.34 101.67 12.68 101.34 12 101 C12.33 102.65 12.66 104.3 13 106 C12.01 106 11.02 106 10 106 C10.312 107.938 10.312 107.938 11 110 C11.99 110.33 12.98 110.66 14 111 C13.34 112.98 12.68 114.96 12 117 C11.34 117 10.68 117 10 117 C10.021 117.557 10.021 117.557 10.125 120.375 C10 124 10 124 8 126 C8.33 126.99 8.66 127.98 9 129 C7.35 129.99 5.7 130.98 4 132 C4 131.01 4 130.02 4 129 C3.34 129 2.68 129 2 129 C1.938 129.969 1.876 130.939 1.812 131.938 C1 135 1 135 -1.113 136.105 C-5.81 135.934 -7.938 132.692 -11 129.375 C-11.603 128.745 -12.207 128.114 -12.828 127.465 C-14.01 126.229 -15.186 124.988 -16.355 123.741 C-18.524 121.445 -20.754 119.22 -23 117 C-23.048 117.732 -23.097 118.464 -23.146 119.218 C-23.825 128.789 -24.914 138.289 -26.062 147.812 C-26.251 149.391 -26.439 150.97 -26.627 152.549 C-27.082 156.366 -27.54 160.183 -28 164 C-31.721 162.291 -33.115 160.746 -35.312 157.25 C-38.096 152.912 -40.928 148.626 -43.855 144.383 C-44.536 143.395 -45.217 142.407 -45.919 141.39 C-47.3 139.388 -48.685 137.389 -50.072 135.392 C-50.708 134.466 -51.344 133.54 -52 132.586 C-52.577 131.751 -53.155 130.916 -53.75 130.056 C-55 128 -55 128 -55 126 C-55.99 126 -56.98 126 -58 126 C-58.061 126.579 -58.061 126.579 -58.368 129.51 C-58.899 133.738 -59.91 137.763 -61.109 141.848 C-61.537 143.345 -61.964 144.842 -62.391 146.339 C-62.613 147.111 -62.836 147.883 -63.065 148.678 C-66.357 160.134 -69.562 171.59 -72.062 183.25 C-72.158 183.695 -72.158 183.695 -72.642 185.946 C-73.676 190.948 -74.433 195.923 -75 201 C-75.66 201 -76.32 201 -77 201 C-78.15 198.843 -79.153 196.722 -80.125 194.484 C-80.277 194.145 -80.277 194.145 -81.044 192.426 C-81.697 190.964 -82.346 189.5 -82.992 188.035 C-84.667 184.239 -86.371 180.455 -88.074 176.672 C-88.242 176.298 -88.242 176.298 -89.093 174.405 C-91.884 168.212 -94.783 162.08 -97.812 156 C-98.214 155.184 -98.616 154.367 -99.029 153.526 C-101.75 148.125 -101.75 148.125 -104 147 C-104.33 147.99 -104.66 148.98 -105 150 C-107.217 151.25 -109.322 152.273 -111.656 153.258 C-112.363 153.561 -113.07 153.863 -113.798 154.175 C-123.446 158.172 -133.481 160.976 -143.5 163.875 C-145.603 164.492 -147.706 165.11 -149.809 165.728 C-162.579 169.473 -175.378 173.111 -188.202 176.67 C-199.632 179.855 -210.989 183.269 -222.347 186.704 C-236.242 190.905 -250.174 194.954 -264.15 198.879 C-264.846 199.075 -265.543 199.272 -266.26 199.474 C-268.124 200 -269.989 200.523 -271.854 201.045 C-275 202 -275 202 -277.714 203.115 C-280.566 204.219 -282.97 204.141 -286 204 C-286 203.01 -286 202.02 -286 201 C-283.463 199.705 -281.034 198.683 -278.375 197.688 C-277.497 197.349 -276.62 197.011 -275.715 196.662 C-272.483 195.425 -269.242 194.213 -266 193 C-264.709 192.512 -263.419 192.023 -262.129 191.534 C-242.306 184.028 -222.336 177.02 -202.25 170.25 C-185.337 164.544 -168.524 158.767 -152 152 C-150.681 151.463 -149.362 150.926 -148.042 150.39 C-143.772 148.649 -139.51 146.89 -135.25 145.125 C-134.576 144.847 -133.901 144.57 -133.207 144.284 C-131.286 143.49 -129.369 142.688 -127.453 141.883 C-126.351 141.423 -125.249 140.963 -124.114 140.489 C-117.564 137.357 -114.197 134.693 -111.812 127.812 C-111.689 127.481 -111.689 127.481 -111.064 125.802 C-110.353 123.876 -109.671 121.941 -109 120 C-108.656 119.015 -108.312 118.03 -107.957 117.016 C-107.28 115.019 -106.635 113.011 -106 111 C-105.34 111 -104.68 111 -104 111 C-102.89 112.674 -102.89 112.674 -101.68 115.031 C-101.231 115.897 -100.781 116.763 -100.319 117.656 C-99.842 118.594 -99.366 119.533 -98.875 120.5 C-98.63 120.975 -98.63 120.975 -97.39 123.382 C-95.917 126.249 -94.456 129.123 -93 132 C-92.593 132.804 -92.186 133.608 -91.767 134.436 C-89.49 138.947 -87.242 143.472 -85 148 C-84.634 148.711 -84.267 149.422 -83.89 150.154 C-83.523 150.87 -83.156 151.586 -82.777 152.324 C-82.608 152.651 -82.608 152.651 -81.75 154.307 C-81 156 -81 156 -81 158 C-80.34 158 -79.68 158 -79 158 C-78.95 157.337 -78.9 156.673 -78.849 155.99 C-78.288 149.149 -77.319 142.474 -76.074 135.727 C-75.885 134.682 -75.696 133.638 -75.502 132.562 C-74.902 129.249 -74.295 125.937 -73.688 122.625 C-73.292 120.444 -72.897 118.263 -72.502 116.082 C-70.075 102.707 -67.567 89.349 -65 76 C-64.34 76 -63.68 76 -63 76 C-61.595 78.567 -61.595 78.567 -59.996 82.133 C-59.713 82.762 -59.429 83.392 -59.137 84.04 C-58.538 85.379 -57.942 86.719 -57.35 88.061 C-56.448 90.1 -55.531 92.132 -54.611 94.164 C-54.03 95.466 -53.45 96.768 -52.871 98.07 C-52.344 99.254 -51.818 100.437 -51.275 101.657 C-50.071 104.813 -49.417 107.658 -49 111 C-48.34 111 -47.68 111 -47 111 C-46.951 110.526 -46.951 110.526 -46.703 108.125 C-45.724 99.063 -44.455 90.061 -43 81.062 C-42.834 80.002 -42.668 78.942 -42.497 77.85 C-42.415 77.354 -42.415 77.354 -42 74.848 C-41.856 73.961 -41.711 73.074 -41.562 72.16 C-41 70 -41 70 -39 68 C-36.66 71.787 -34.329 75.581 -32 79.375 C-31.332 80.455 -30.665 81.535 -29.977 82.648 C-29.661 83.164 -29.661 83.164 -28.062 85.773 C-27.476 86.727 -26.889 87.68 -26.285 88.662 C-25 91 -25 91 -25 93 C-24.34 93 -23.68 93 -23 93 C-23.33 92.01 -23.66 91.02 -24 90 C-24.165 88.369 -24.283 86.733 -24.373 85.096 C-24.43 84.096 -24.487 83.097 -24.545 82.067 C-24.602 80.983 -24.66 79.898 -24.719 78.781 C-24.782 77.654 -24.844 76.527 -24.909 75.366 C-25.11 71.744 -25.305 68.122 -25.5 64.5 C-25.631 62.121 -25.763 59.742 -25.895 57.363 C-26.619 44.243 -27.317 31.122 -28 18 C-24.562 19.146 -24.078 19.903 -22 22.75 C-19.028 26.705 -15.91 30.499 -12.688 34.25 C-7.996 39.736 -3.554 45.375 0.809 51.125 C2.834 53.783 4.908 56.394 7 59 C6.912 58.29 6.825 57.581 6.734 56.85 C5.909 50.169 5.085 43.489 4.262 36.808 C3.839 33.373 3.415 29.938 2.991 26.504 C2.503 22.557 2.017 18.611 1.531 14.664 C1.378 13.428 1.225 12.191 1.067 10.917 C0.927 9.776 0.787 8.635 0.643 7.459 C0.58 6.955 0.58 6.955 0.266 4.404 C0 2 0 2 0 0 Z M-1 61 C-1.33 61.165 -1.33 61.165 -3 62 C-3 62.66 -3 63.32 -3 64 C-2.01 64 -1.02 64 0 64 C-0.33 63.01 -0.66 62.02 -1 61 Z M7 73 C7 73.99 7 74.98 7 76 C7.99 76 8.98 76 10 76 C9.67 75.01 9.34 74.02 9 73 C8.34 73 7.68 73 7 73 Z M25 76 C25 76.66 25 77.32 25 78 C25.66 77.67 26.32 77.34 27 77 C26.34 76.67 25.68 76.34 25 76 Z M0 77 C1 80 1 80 1 80 Z M-6 78 C-5.67 78.99 -5.34 79.98 -5 81 C-4.67 80.01 -4.34 79.02 -4 78 C-4.66 78 -5.32 78 -6 78 Z M31 79 C32 81 32 81 32 81 Z M19 80 C18.67 80.99 18.34 81.98 18 83 C18.99 83.33 19.98 83.66 21 84 C21 82.68 21 81.36 21 80 C20.34 80 19.68 80 19 80 Z M26 83 C26 83.66 26 84.32 26 85 C25.34 85 24.68 85 24 85 C24.33 86.32 24.66 87.64 25 89 C25.66 89 26.32 89 27 89 C27.625 87.125 27.625 87.125 28 85 C27.34 84.34 26.68 83.68 26 83 Z M-4 91 C-2.062 90.75 -2.062 90.75 0 90 C0.75 87.938 0.75 87.938 1 86 C-1.168 86 -2.78 89.425 -4 91 Z M15 87 C14.67 87.165 14.67 87.165 13 88 C13 88.99 13 89.98 13 91 C13.99 90.67 14.98 90.34 16 90 C15.67 89.01 15.34 88.02 15 87 Z M16 91 C16.33 91.99 16.66 92.98 17 94 C17.33 93.01 17.66 92.02 18 91 C17.34 91 16.68 91 16 91 Z M35 91 C35.33 91.66 35.66 92.32 36 93 C36.33 92.34 36.66 91.68 37 91 C36.34 91 35.68 91 35 91 Z M-6 97 C-5.858 99.482 -5.104 100.792 -4 103 C-4.66 103 -5.32 103 -6 103 C-6.33 106.63 -6.66 110.26 -7 114 C-6.67 113.34 -6.34 112.68 -6 112 C-3.438 111.375 -3.438 111.375 -1 111 C-1.33 110.34 -1.66 109.68 -2 109 C-2.04 107 -2.043 105 -2 103 C-1.01 102.67 -0.02 102.34 1 102 C0.67 101.01 0.34 100.02 0 99 C0.278 96.659 0.605 94.324 1 92 C-2.479 92 -3.885 94.485 -6 97 Z M14 94 C13.67 94.99 13.34 95.98 13 97 C13.825 97.165 13.825 97.165 18 98 C18.33 97.34 18.66 96.68 19 96 C17.68 96 16.36 96 15 96 C14.67 95.34 14.34 94.68 14 94 Z M-9 100 C-8.67 100.99 -8.34 101.98 -8 103 C-7.67 102.01 -7.34 101.02 -7 100 C-7.66 100 -8.32 100 -9 100 Z M5 104 C5 107 5 107 5 107 Z M-1 106 C-1 106.66 -1 107.32 -1 108 C-0.34 108 0.32 108 1 108 C1 107.34 1 106.68 1 106 C0.34 106 -0.32 106 -1 106 Z M-14 111 C-14.33 111.66 -14.66 112.32 -15 113 C-14.34 113 -13.68 113 -13 113 C-13.33 112.34 -13.66 111.68 -14 111 Z M4 115 C4 115.66 4 116.32 4 117 C4.66 116.67 5.32 116.34 6 116 C5.34 115.67 4.68 115.34 4 115 Z M-5 116 C-5.33 116.66 -5.66 117.32 -6 118 C-5.01 117.67 -4.02 117.34 -3 117 C-3.66 116.67 -4.32 116.34 -5 116 Z M-5 120 C-6.681 121.681 -6.091 123.773 -6.062 126.062 C-6.053 126.982 -6.044 127.901 -6.035 128.848 C-6.024 129.558 -6.012 130.268 -6 131 C-4.68 130.67 -3.36 130.34 -2 130 C-1.875 127.062 -1.875 127.062 -2 124 C-2.66 123.67 -3.32 123.34 -4 123 C-4.33 122.01 -4.66 121.02 -5 120 Z M6 121 C6 121.66 6 122.32 6 123 C6.66 123 7.32 123 8 123 C8 122.34 8 121.68 8 121 C7.34 121 6.68 121 6 121 Z M5 169 C3.875 175.625 3.875 175.625 5 179 C8 175.375 8 175.375 8 172 C7.34 172 6.68 172 6 172 C6.33 171.01 6.66 170.02 7 169 C6.34 169 5.68 169 5 169 Z M-272 197 C-272 197.66 -272 198.32 -272 199 C-271.34 199 -270.68 199 -270 199 C-270 198.34 -270 197.68 -270 197 C-270.66 197 -271.32 197 -272 197 Z M-280 200 C-279.67 200.66 -279.34 201.32 -279 202 C-278.34 201.34 -277.68 200.68 -277 200 C-277.99 200 -278.98 200 -280 200 Z " fill="#E9E1F4" transform="translate(754,572)"/>
<path d="M0 0 C0 3.52 -0.704 4.439 -3 7 C-3.66 7 -4.32 7 -5 7 C-4.67 7.99 -4.34 8.98 -4 10 C-9.625 13 -9.625 13 -13 13 C-13 13.99 -13 14.98 -13 16 C-14.991 17.017 -16.992 18.016 -19 19 C-19.33 19.99 -19.66 20.98 -20 22 C-22.514 23.432 -25.106 24.547 -27.75 25.719 C-30 27 -30 27 -31 30 C-31.505 30.247 -31.505 30.247 -34.062 31.5 C-34.547 31.747 -34.547 31.747 -37 33 C-37 36 -37 36 -36 38 C-36.592 37.977 -37.183 37.954 -37.793 37.93 C-44.233 37.783 -48.402 38.202 -53 43 C-56.672 45.312 -60.82 46.025 -65 47 C-64.67 47.99 -64.67 47.99 -63 53 C-63.516 52.794 -64.031 52.587 -64.562 52.375 C-69.141 51.671 -74.127 53.521 -78 56 C-78 56.66 -78 57.32 -78 58 C-79.32 58 -80.64 58 -82 58 C-82.33 58.99 -82.66 59.98 -83 61 C-85.375 63.25 -85.375 63.25 -88 65 C-88.99 64.67 -89.98 64.34 -91 64 C-91 64.66 -91 65.32 -91 66 C-91.99 65.67 -92.98 65.34 -94 65 C-94.33 65.99 -94.66 66.98 -95 68 C-96.32 67.67 -97.64 67.34 -99 67 C-99 67.99 -99 68.98 -99 70 C-98.01 70 -97.02 70 -96 70 C-95.67 72.64 -95.34 75.28 -95 78 C-97.31 78 -99.62 78 -102 78 C-102 77.01 -102 76.02 -102 75 C-101.34 75 -100.68 75 -100 75 C-100 73.35 -100 71.7 -100 70 C-108.55 71.179 -108.55 71.179 -110.438 74.625 C-110.623 75.409 -110.809 76.192 -111 77 C-111.66 77 -112.32 77 -113 77 C-113 76.34 -113 75.68 -113 75 C-113.66 75 -114.32 75 -115 75 C-114.794 75.619 -114.587 76.237 -114.375 76.875 C-114.251 77.576 -114.128 78.278 -114 79 C-116 81 -116 81 -120 81 C-119.67 80.01 -119.34 79.02 -119 78 C-119.603 78.217 -120.207 78.433 -120.828 78.656 C-121.627 78.935 -122.427 79.213 -123.25 79.5 C-124.039 79.778 -124.828 80.057 -125.641 80.344 C-128 81 -128 81 -132 81 C-132 81.66 -132 82.32 -132 83 C-134.803 85.061 -136.79 85.968 -140.25 86.5 C-141.158 86.665 -142.065 86.83 -143 87 C-143.33 87.99 -143.66 88.98 -144 90 C-145.926 90.23 -145.926 90.23 -148.312 90.188 C-152.573 90.472 -152.573 90.472 -154.484 92.836 C-155.467 94.866 -156.302 96.857 -157 99 C-157.99 98.67 -158.98 98.34 -160 98 C-159.67 98.99 -159.34 99.98 -159 101 C-159.99 101 -160.98 101 -162 101 C-162 100.01 -162 99.02 -162 98 C-163.65 97.67 -165.3 97.34 -167 97 C-167.041 97.619 -167.082 98.237 -167.125 98.875 C-168.467 102.134 -170.754 102.171 -174 103 C-174.33 102.34 -174.66 101.68 -175 101 C-175.299 101.402 -175.299 101.402 -176.812 103.438 C-179 106 -179 106 -182 107 C-183.188 110.062 -183.188 110.062 -184 113 C-183.01 112.67 -182.02 112.34 -181 112 C-181 112.66 -181 113.32 -181 114 C-181.66 114 -182.32 114 -183 114 C-183 114.66 -183 115.32 -183 116 C-182.34 116.33 -181.68 116.66 -181 117 C-180.375 119.062 -180.375 119.062 -180 121 C-180.66 121 -181.32 121 -182 121 C-181.67 122.65 -181.34 124.3 -181 126 C-181.99 126 -182.98 126 -184 126 C-185.362 127.981 -186.696 129.981 -188 132 C-188.66 132 -189.32 132 -190 132 C-190 132.66 -190 133.32 -190 134 C-190.639 134.124 -191.279 134.247 -191.938 134.375 C-194 135 -194 135 -195 137 C-196.333 137.667 -197.667 138.333 -199 139 C-199.33 139.66 -199.66 140.32 -200 141 C-200.66 141 -201.32 141 -202 141 C-202.165 140.175 -202.165 140.175 -203 136 C-203.66 136 -204.32 136 -205 136 C-205 134.35 -205 132.7 -205 131 C-203.68 131 -202.36 131 -201 131 C-201.99 130.67 -202.98 130.34 -204 130 C-203.835 129.34 -203.835 129.34 -203 126 C-203.784 125.856 -204.567 125.711 -205.375 125.562 C-208 125 -208 125 -210 124 C-210.33 124.66 -210.66 125.32 -211 126 C-211.66 125.67 -212.32 125.34 -213 125 C-212.25 129.875 -212.25 129.875 -210 131 C-209.968 132.997 -209.943 134.997 -210.027 136.992 C-210 139 -210 139 -209 142 C-209.938 145.188 -209.938 145.188 -211 148 C-211.66 148 -212.32 148 -213 148 C-212.505 148.66 -212.505 148.66 -210 152 C-210.99 152.33 -211.98 152.66 -213 153 C-213.33 154.155 -213.66 155.31 -214 156.5 C-214.33 157.655 -214.66 158.81 -215 160 C-215.99 160.33 -216.98 160.66 -218 161 C-218.33 159.845 -218.33 159.845 -220 154 C-218.68 154.33 -217.36 154.66 -216 155 C-216 154.01 -216 153.02 -216 152 C-217.32 152.33 -218.64 152.66 -220 153 C-220.66 152.01 -221.32 151.02 -222 150 C-223.32 150.33 -224.64 150.66 -226 151 C-225.484 151.392 -224.969 151.784 -224.438 152.188 C-223 154 -223 154 -223.125 156.625 C-224 159 -224 159 -227 160 C-227.33 159.34 -227.66 158.68 -228 158 C-227.01 157.34 -226.02 156.68 -225 156 C-226.65 156 -228.3 156 -230 156 C-229.67 155.34 -229.34 154.68 -229 154 C-228.34 154 -227.68 154 -227 154 C-227.165 153.175 -227.165 153.175 -228 149 C-227.01 149 -226.02 149 -225 149 C-225 148.34 -225 147.68 -225 147 C-222 145 -222 145 -218 145 C-218 143.68 -218 142.36 -218 141 C-218 140.67 -218 140.34 -218 140 C-218.66 139.67 -219.32 139.34 -220 139 C-219.67 137.35 -219.34 135.7 -219 134 C-218.34 134 -217.68 134 -217 134 C-217.66 133.34 -218.32 132.68 -219 132 C-219.289 132.33 -219.289 132.33 -220.75 134 C-223 136 -223 136 -227 136 C-227.33 136.99 -227.66 137.98 -228 139 C-228.99 139 -229.98 139 -231 139 C-230.67 140.32 -230.34 141.64 -230 143 C-230.788 143.061 -231.575 143.121 -232.387 143.184 C-235 144 -235 144 -236.145 146.285 C-236.365 147.202 -236.585 148.118 -236.812 149.062 C-237.046 149.982 -237.279 150.901 -237.52 151.848 C-237.678 152.558 -237.837 153.268 -238 154 C-239.32 153.67 -240.64 153.34 -242 153 C-242 154.65 -242 156.3 -242 158 C-243.32 158 -244.64 158 -246 158 C-246.33 158.99 -246.66 159.98 -247 161 C-247.66 161 -248.32 161 -249 161 C-249.729 162.64 -250.387 164.313 -251 166 C-251.938 168.312 -251.938 168.312 -253 170 C-253.99 170 -254.98 170 -256 170 C-256.33 171.65 -256.66 173.3 -257 175 C-257.66 175 -258.32 175 -259 175 C-260.379 177.921 -261.3 180.852 -262 184 C-262.99 184 -263.98 184 -265 184 C-264.773 185.114 -264.546 186.227 -264.312 187.375 C-264.209 188.571 -264.106 189.768 -264 191 C-264.495 191.33 -264.495 191.33 -267 193 C-267.33 192.67 -267.66 192.34 -268 192 C-268.99 194.97 -269.98 197.94 -271 201 C-271.165 200.34 -271.165 200.34 -272 197 C-272.082 198.072 -272.165 199.145 -272.25 200.25 C-273.055 204.274 -273.877 205.482 -277 208 C-276.34 208 -275.68 208 -275 208 C-275.66 210.64 -276.32 213.28 -277 216 C-278.32 216 -279.64 216 -281 216 C-280.709 216.55 -280.417 217.101 -280.117 217.668 C-276.918 224.157 -274.928 230.589 -273.062 237.562 C-268.059 255.958 -268.059 255.958 -262.035 258.988 C-260 259 -260 259 -258.254 257.34 C-257.696 256.547 -257.138 255.754 -256.562 254.938 C-255.962 254.112 -255.361 253.288 -254.742 252.438 C-254.455 252.035 -254.455 252.035 -253 250 C-248.379 244 -248.379 244 -246 244 C-246 243.34 -246 242.68 -246 242 C-244.777 240.801 -244.777 240.801 -242.938 239.312 C-238.603 235.646 -234.661 231.671 -230.688 227.625 C-224.75 221.617 -218.665 216.198 -212 211 C-211.62 210.681 -211.62 210.681 -209.699 209.066 C-202.549 203.094 -194.782 198.152 -186.906 193.204 C-185.354 192.223 -183.815 191.22 -182.281 190.211 C-151.971 170.8 -111.744 163.443 -78 177 C-74.219 178.829 -70.594 180.829 -67 183 C-66.074 183.513 -65.149 184.026 -64.195 184.555 C-63.471 185.032 -62.746 185.509 -62 186 C-62 186.66 -62 187.32 -62 188 C-63.165 187.783 -64.331 187.567 -65.531 187.344 C-123.966 177.133 -172.013 204.618 -213 244 C-213.269 244.258 -213.269 244.258 -214.629 245.562 C-224.612 255.198 -233.469 265.306 -241.083 276.938 C-242.007 278.325 -242.998 279.668 -244 281 C-244.66 281 -245.32 281 -246 281 C-246 280.34 -246 279.68 -246 279 C-245.34 279 -244.68 279 -244 279 C-243.271 277.36 -242.613 275.687 -242 274 C-241.348 272.659 -240.686 271.323 -240 270 C-240.66 270 -241.32 270 -242 270 C-242 268.68 -242 267.36 -242 266 C-242.577 266.495 -243.155 266.99 -243.75 267.5 C-246 269 -246 269 -250 269 C-250.165 268.505 -250.165 268.505 -251 266 C-251.33 266.99 -251.66 267.98 -252 269 C-252.99 269 -253.98 269 -255 269 C-255.66 271.97 -256.32 274.94 -257 278 C-259.64 278 -262.28 278 -265 278 C-265 277.01 -265 276.02 -265 275 C-265.66 274.67 -266.32 274.34 -267 274 C-267.66 273.67 -268.32 273.34 -269 273 C-269 272.01 -269 271.02 -269 270 C-269.639 269.959 -270.279 269.918 -270.938 269.875 C-273 269 -273 269 -273.75 265.938 C-273.791 265.453 -273.791 265.453 -274 263 C-274.99 263 -275.98 263 -277 263 C-277 262.34 -277 261.68 -277 261 C-279.375 259.938 -279.375 259.938 -282 259 C-282.66 258.67 -283.32 258.34 -284 258 C-283.625 260.938 -283.625 260.938 -283 264 C-282.34 264.33 -281.68 264.66 -281 265 C-282.998 266.998 -287.132 265.419 -289.75 265.059 C-290.493 265.039 -291.235 265.02 -292 265 C-292.33 265.66 -292.66 266.32 -293 267 C-293.66 266.67 -294.32 266.34 -295 266 C-297.125 232.311 -277.233 194.236 -258 168 C-257.587 167.422 -257.174 166.844 -256.749 166.248 C-250.168 157.047 -242.557 148.898 -234.71 140.777 C-233.262 139.273 -231.836 137.748 -230.414 136.219 C-204.772 109.264 -169.961 94.011 -136.666 79.006 C-128.999 75.551 -121.341 72.076 -113.689 68.588 C-111.519 67.599 -109.347 66.615 -107.175 65.63 C-97.669 61.306 -88.309 56.732 -79 52 C-77.991 51.49 -76.982 50.98 -75.942 50.454 C-48.228 36.377 -23.235 20.705 0 0 Z M-189 113 C-191.31 113.33 -193.62 113.66 -196 114 C-195.691 117.093 -195.353 117.786 -192.625 119.438 C-190 120 -190 120 -188.188 118.625 C-187.796 118.089 -187.404 117.553 -187 117 C-187.66 115.68 -188.32 114.36 -189 113 Z M-200 119 C-199 121 -199 121 -199 121 Z M-200 224 C-199 226 -199 226 -199 226 Z M-215 234 C-215.33 234.66 -215.66 235.32 -216 236 C-215.34 236 -214.68 236 -214 236 C-214.33 235.34 -214.66 234.68 -215 234 Z M-242 245 C-242.562 246.848 -242.562 246.848 -243 249.062 C-243.162 249.857 -243.325 250.651 -243.492 251.469 C-243.66 252.304 -243.827 253.139 -244 254 C-244.371 255.688 -244.746 257.376 -245.125 259.062 C-245.293 259.817 -245.46 260.571 -245.633 261.348 C-245.754 261.893 -245.875 262.438 -246 263 C-240.25 264 -240.25 264 -238 264 C-238 263.01 -238 262.02 -238 261 C-237.34 261 -236.68 261 -236 261 C-236.33 259.68 -236.66 258.36 -237 257 C-236.34 256.711 -235.68 256.423 -235 256.125 C-234.34 255.754 -233.68 255.382 -233 255 C-233 254.34 -233 253.68 -233 253 C-231.35 253 -229.7 253 -228 253 C-228 253.66 -228 254.32 -228 255 C-227.34 255 -226.68 255 -226 255 C-226 253.68 -226 252.36 -226 251 C-225.34 250.67 -224.68 250.34 -224 250 C-223.375 247.938 -223.375 247.938 -223 246 C-224.98 246.33 -226.96 246.66 -229 247 C-229 246.34 -229 245.68 -229 245 C-229.66 245 -230.32 245 -231 245 C-231 246.32 -231 247.64 -231 249 C-231.99 249.33 -232.98 249.66 -234 250 C-234 250.99 -234 251.98 -234 253 C-234.66 253 -235.32 253 -236 253 C-236.33 249.7 -236.66 246.4 -237 243 C-240 243 -240 243 -242 245 Z M-280 253 C-280 253.66 -280 254.32 -280 255 C-279.01 255.33 -278.02 255.66 -277 256 C-277 255.01 -277 254.02 -277 253 C-277.99 253 -278.98 253 -280 253 Z M-251 257 C-250.67 257.66 -250.34 258.32 -250 259 C-249.67 258.34 -249.34 257.68 -249 257 C-249.66 257 -250.32 257 -251 257 Z M-277 258 C-276.34 259.32 -275.68 260.64 -275 262 C-274.34 260.68 -273.68 259.36 -273 258 C-274.32 258 -275.64 258 -277 258 Z M-254 259 C-254.33 259.66 -254.66 260.32 -255 261 C-253.68 261.33 -252.36 261.66 -251 262 C-251 261.34 -251 260.68 -251 260 C-251.99 259.67 -252.98 259.34 -254 259 Z M-255 266 C-255 266.66 -255 267.32 -255 268 C-254.34 268 -253.68 268 -253 268 C-253 267.34 -253 266.68 -253 266 C-253.66 266 -254.32 266 -255 266 Z " fill="#E9E1F4" transform="translate(632,620)"/>
<path d="M0 0 C1.65 0 3.3 0 5 0 C4.34 1.32 3.68 2.64 3 4 C3.99 4 4.98 4 6 4 C8.333 4 10.667 4 13 4 C13 4.99 13 5.98 13 7 C12.34 7 11.68 7 11 7 C11 7.66 11 8.32 11 9 C11.99 9.165 11.99 9.165 17 10 C17.144 9.629 17.144 9.629 17.875 7.75 C18.246 6.842 18.617 5.935 19 5 C19.289 4.258 19.577 3.515 19.875 2.75 C21.322 0.498 22.411 0.345 25 0 C25 0.66 25 1.32 25 2 C24.34 2 23.68 2 23 2 C22.67 3.32 22.34 4.64 22 6 C22.99 6 23.98 6 25 6 C25 5.34 25 4.68 25 4 C25.66 4 26.32 4 27 4 C27 4.66 27 5.32 27 6 C28.98 5.34 30.96 4.68 33 4 C36 7.625 36 7.625 36 11 C35.01 11.66 34.02 12.32 33 13 C31.812 16.125 31.812 16.125 31 19 C31.99 19 32.98 19 34 19 C34.121 19.58 34.242 20.16 34.367 20.758 C37.113 33.556 37.113 33.556 40 35 C39.01 35.33 38.02 35.66 37 36 C35.812 39.562 35.812 39.562 35 43 C35.66 42.835 35.66 42.835 39 42 C39 42.66 39 43.32 39 44 C38.01 44 37.02 44 36 44 C36.66 46.31 37.32 48.62 38 51 C37.01 50.67 36.02 50.34 35 50 C35 49.34 35 48.68 35 48 C34.01 48 33.02 48 32 48 C34.378 52.933 34.378 52.933 36 55 C38.75 55.438 38.75 55.438 41 55 C41 56.32 41 57.64 41 59 C42.32 59 43.64 59 45 59 C44.835 59.33 44.835 59.33 44 61 C43.67 60.835 43.67 60.835 42 60 C42.186 60.619 42.371 61.237 42.562 61.875 C43 64 43 64 42 66 C42.99 66 43.98 66 45 66 C44.67 68.31 44.34 70.62 44 73 C44.66 73 45.32 73 46 73 C46 71.68 46 70.36 46 69 C46.99 69 47.98 69 49 69 C49 70.32 49 71.64 49 73 C49.66 73 50.32 73 51 73 C51 73.66 51 74.32 51 75 C50.34 75 49.68 75 49 75 C48.67 75.66 48.34 76.32 48 77 C47.34 77 46.68 77 46 77 C46 78.32 46 79.64 46 81 C47.32 81.33 48.64 81.66 50 82 C49.01 83.65 48.02 85.3 47 87 C47.99 86.67 48.98 86.34 50 86 C53.875 91.625 53.875 91.625 55 95 C54.34 95 53.68 95 53 95 C53 95.66 53 96.32 53 97 C51.5 98.625 51.5 98.625 50 100 C50.66 100 51.32 100 52 100 C54.002 103.688 54.144 105.995 53 110 C53.99 109.835 53.99 109.835 59 109 C59 109.66 59 110.32 59 111 C59.66 111 60.32 111 61 111 C62.25 113.312 62.25 113.312 63 116 C62.34 116.99 61.68 117.98 61 119 C62.32 120.65 63.64 122.3 65 124 C64.34 124 63.68 124 63 124 C63 124.66 63 125.32 63 126 C63.299 125.897 63.299 125.897 64.812 125.375 C67 125 67 125 70 127 C69.34 127 68.68 127 68 127 C68.165 128.155 68.165 128.155 69 134 C69.66 134 70.32 134 71 134 C71 132.68 71 131.36 71 130 C71.598 129.897 72.196 129.794 72.812 129.688 C75 129 75 129 76.562 127.438 C78 126 78 126 81 126 C80.34 125.072 79.68 124.144 79 123.188 C77 120 77 120 77 117 C76.01 117 75.02 117 74 117 C74.33 118.32 74.66 119.64 75 121 C74.67 121.165 74.67 121.165 73 122 C72.385 115.6 72.385 115.6 75.5 112.562 C75.913 112.305 75.913 112.305 78 111 C77.67 110.34 77.34 109.68 77 109 C77.33 108.34 77.66 107.68 78 107 C79.32 107 80.64 107 82 107 C82 106.34 82 105.68 82 105 C81.01 105 80.02 105 79 105 C79 104.34 79 103.68 79 103 C79.66 102.67 80.32 102.34 81 102 C80.34 101.835 80.34 101.835 77 101 C77 100.34 77 99.68 77 99 C77.99 98.67 78.98 98.34 80 98 C80 97.34 80 96.68 80 96 C78.02 95.67 76.04 95.34 74 95 C74.309 94.969 74.309 94.969 75.875 94.812 C78 94 78 94 79.438 92 C80.273 87.543 78.67 84.122 77 80 C75.68 80.33 74.36 80.66 73 81 C73.66 81 74.32 81 75 81 C75.33 82.32 75.66 83.64 76 85 C70.241 83.53 70.241 83.53 69.062 80.938 C69 79 69 79 70 78 C71.641 77.792 73.289 77.632 74.938 77.5 C79.78 77.11 79.78 77.11 82 76 C82.892 78.676 83.262 80.786 83.543 83.566 C87.168 117.422 94.065 150.713 102.816 183.599 C103.101 184.671 103.386 185.743 103.68 186.848 C103.935 187.796 104.19 188.745 104.453 189.723 C105 192 105 192 105 194 C105.307 193.967 105.307 193.967 106.861 193.801 C109.698 193.502 112.536 193.22 115.375 192.938 C116.341 192.834 117.306 192.73 118.301 192.623 C130.544 191.432 141.747 192.06 150.688 201.5 C154.469 206.2 161 214.788 161 221 C157.14 221.226 153.702 221.186 150 220 C148.329 217.593 147.646 215.385 146.82 212.582 C145.263 207.681 141.957 203.699 137 202 C134.343 201.273 131.684 200.626 129 200 C129 200.66 129 201.32 129 202 C129.268 202.124 129.268 202.124 130.625 202.75 C134.824 204.96 138.402 207.637 139.605 212.395 C139.846 214.609 139.99 216.774 140 219 C134.969 220.677 129.769 220.436 124.5 220.562 C123.346 220.625 122.193 220.688 121.004 220.752 C112.769 220.91 112.769 220.91 110.61 218.355 C109.806 216.229 109.362 214.241 109 212 C108.687 211.092 108.374 210.185 108.051 209.25 C107.807 208.507 107.564 207.765 107.312 207 C107.061 206.237 106.81 205.474 106.551 204.688 C106.369 204.131 106.187 203.574 106 203 C103.028 204.451 100.213 205.851 97.5 207.75 C94.062 209.469 92.606 209.325 89 208 C83.302 203.045 80.563 196.372 77.688 189.562 C77.217 188.471 76.746 187.379 76.261 186.254 C71.819 175.832 67.864 165.24 63.964 154.606 C62.626 150.989 61.238 147.395 59.812 143.812 C59.406 142.788 59 141.763 58.582 140.707 C57.281 137.572 55.842 134.508 54.402 131.434 C49.938 121.812 45.864 112.024 41.75 102.25 C41.331 101.255 40.911 100.261 40.479 99.236 C26.517 66.112 26.517 66.112 22 54 C21.648 53.071 21.297 52.141 20.935 51.184 C19.881 47.594 19.565 44.323 19.332 40.59 C19.31 40.245 19.31 40.245 19.199 38.499 C19.109 37.05 19.022 35.6 18.94 34.15 C18.813 31.94 18.67 29.731 18.525 27.521 C18.439 26.107 18.354 24.692 18.27 23.277 C18.193 22.001 18.117 20.725 18.038 19.41 C18.004 16.398 18.265 13.907 19 11 C18.01 11 17.02 11 16 11 C16 11.66 16 12.32 16 13 C15 13 14 13 13 13 C12.01 13.33 11.02 13.66 10 14 C5 9.698 5 9.698 5 7 C4.361 6.732 3.721 6.464 3.062 6.188 C0.236 4.56 0.329 3.125 0 0 Z M8 5 C7.67 5.66 7.34 6.32 7 7 C7.66 7 8.32 7 9 7 C8.67 6.34 8.34 5.68 8 5 Z M24 7 C23 10 23 10 24 12 C26.062 12.625 26.062 12.625 28 13 C28.33 11.68 28.66 10.36 29 9 C28.175 8.67 28.175 8.67 24 7 Z M31 9 C32 11 32 11 32 11 Z M33 24 C32.67 24.66 32.34 25.32 32 26 C32.66 26 33.32 26 34 26 C33.67 25.34 33.34 24.68 33 24 Z M28 29 C29 31 29 31 29 31 Z M33 56 C34.477 60.8 34.477 60.8 37.125 61.812 C37.434 61.843 37.434 61.843 39 62 C38.812 60.125 38.812 60.125 38 58 C35.438 56.75 35.438 56.75 33 56 Z M37 63 C37 63.66 37 64.32 37 65 C37.66 65 38.32 65 39 65 C39 64.34 39 63.68 39 63 C38.34 63 37.68 63 37 63 Z M57 111 C57 112.65 57 114.3 57 116 C57.99 116 58.98 116 60 116 C59.37 114.319 58.702 112.652 58 111 C57.67 111 57.34 111 57 111 Z M72 132 C71.897 132.639 71.794 133.279 71.688 133.938 C71 136 71 136 68 137 C68 137.66 68 138.32 68 139 C71.688 138.502 73.605 137.899 76 135 C75.34 134.01 74.68 133.02 74 132 C73.34 132 72.68 132 72 132 Z M75 143 C74.67 143.99 74.34 144.98 74 146 C75.32 145.67 76.64 145.34 78 145 C78 144.34 78 143.68 78 143 C77.01 143 76.02 143 75 143 Z M79 144 C79.33 144.99 79.66 145.98 80 147 C80.66 147 81.32 147 82 147 C81.67 146.01 81.34 145.02 81 144 C80.34 144 79.68 144 79 144 Z M74 148 C74.33 148.99 74.66 149.98 75 151 C75.33 150.01 75.66 149.02 76 148 C75.34 148 74.68 148 74 148 Z M88 169 C88 169.66 88 170.32 88 171 C88.99 170.67 89.98 170.34 91 170 C90.01 169.67 89.02 169.34 88 169 Z M76 170 C76.33 170.99 76.66 171.98 77 173 C77.33 172.01 77.66 171.02 78 170 C77.34 170 76.68 170 76 170 Z M87 175 C87.33 175.99 87.66 176.98 88 178 C88.33 177.01 88.66 176.02 89 175 C88.34 175 87.68 175 87 175 Z " fill="#E9E1F4" transform="translate(597,805)"/>
<path d="M0 0 C0.33 2.438 0.615 4.867 0.875 7.312 C0.973 8.003 1.071 8.693 1.172 9.404 C1.367 11.426 1.367 11.426 1 15 C-1.992 16.98 -1.992 16.98 -5 18 C-5.165 17.67 -5.165 17.67 -6 16 C-10.436 17.479 -10.622 19.78 -12 24 C-13.875 25.562 -13.875 25.562 -16 27 C-19.704 31.249 -19.704 31.249 -20.812 34.062 C-22.449 36.733 -24.596 37.614 -27.316 39.062 C-30.625 40.905 -31.807 42.421 -33 46 C-35.562 46.688 -35.562 46.688 -38 47 C-36.582 43.456 -35.324 42.662 -32 41 C-31.74 40.447 -31.479 39.894 -31.211 39.324 C-29.512 36.063 -27.062 33.533 -24.625 30.812 C-17.321 22.489 -10.766 13.526 -4.84 4.168 C-2.195 0 -2.195 0 0 0 Z M-5 12 C-5.33 12.66 -5.66 13.32 -6 14 C-5.34 14 -4.68 14 -4 14 C-4.33 13.34 -4.66 12.68 -5 12 Z " fill="#E9E1F4" transform="translate(318,916)"/>
<path d="M0 0 C7.285 9.476 7.285 9.476 7.285 13.016 C-1.234 13.223 -6.135 12.764 -11.75 6.152 C-18.723 -1.431 -29.544 -5.214 -39.715 -4.984 C-40.045 -4.324 -40.375 -3.664 -40.715 -2.984 C-40.715 -3.974 -40.715 -4.964 -40.715 -5.984 C-41.622 -5.592 -42.53 -5.201 -43.465 -4.797 C-47.514 -3.785 -47.656 -4.517 -50.715 -6.984 C-53.465 -6.672 -53.465 -6.672 -55.715 -5.984 C-56.045 -6.974 -56.375 -7.964 -56.715 -8.984 C-58.973 -9.426 -58.973 -9.426 -61.84 -9.547 C-66.449 -9.835 -70.345 -10.528 -74.715 -11.984 C-75.045 -10.664 -75.375 -9.344 -75.715 -7.984 C-76.375 -8.314 -77.035 -8.644 -77.715 -8.984 C-77.715 -9.644 -77.715 -10.304 -77.715 -10.984 C-79.695 -10.654 -81.675 -10.324 -83.715 -9.984 C-84.045 -10.644 -84.375 -11.304 -84.715 -11.984 C-64.124 -22.28 -15.542 -17.984 0 0 Z M-57.715 -12.984 C-57.385 -12.324 -57.055 -11.664 -56.715 -10.984 C-56.385 -11.644 -56.055 -12.304 -55.715 -12.984 C-56.375 -12.984 -57.035 -12.984 -57.715 -12.984 Z M-49.715 -12.984 C-50.705 -12.324 -51.695 -11.664 -52.715 -10.984 C-51.395 -10.984 -50.075 -10.984 -48.715 -10.984 C-49.045 -11.644 -49.375 -12.304 -49.715 -12.984 Z M-47.715 -9.984 C-47.385 -8.664 -47.055 -7.344 -46.715 -5.984 C-45.725 -6.314 -44.735 -6.644 -43.715 -6.984 C-44.375 -7.974 -45.035 -8.964 -45.715 -9.984 C-46.375 -9.984 -47.035 -9.984 -47.715 -9.984 Z M-8.715 4.016 C-8.385 4.676 -8.055 5.336 -7.715 6.016 C-6.395 5.686 -5.075 5.356 -3.715 5.016 C-3.715 4.686 -3.715 4.356 -3.715 4.016 C-5.365 4.016 -7.015 4.016 -8.715 4.016 Z " fill="#E9E1F4" transform="translate(544.71484375,1007.984375)"/>
<path d="M0 0 C7.338 3.461 14.321 7.964 17 16 C13.945 17.527 11.337 16.492 8 16 C7.412 16.01 7.412 16.01 4.438 16.062 C0.825 15.997 -1.703 15.457 -5 14 C-5.66 13.01 -6.32 12.02 -7 11 C-6.374 11.035 -5.747 11.07 -5.102 11.105 C-4.284 11.133 -3.467 11.16 -2.625 11.188 C-2.219 11.205 -2.219 11.205 -0.164 11.293 C2 11 2 11 4 8 C2.02 8.66 0.04 9.32 -2 10 C-1.34 8.02 -0.68 6.04 0 4 C-0.66 3.67 -1.32 3.34 -2 3 C-1.34 3 -0.68 3 0 3 C0 2.01 0 1.02 0 0 Z " fill="#E9E1F4" transform="translate(508,1004)"/>
<path d="M0 0 C-1.542 4.401 -5.014 6.596 -8.625 9.25 C-9.236 9.709 -9.847 10.168 -10.477 10.641 C-11.979 11.768 -13.489 12.885 -15 14 C-7.937 16.322 -0.712 11.924 5.562 8.875 C18.432 2.926 28.854 5.834 41.016 12.703 C41.343 12.917 41.343 12.917 43 14 C39.213 15.262 37.672 14.328 34 13 C33.34 13 32.68 13 32 13 C32.66 13.66 33.32 14.32 34 15 C28.687 17.02 23.41 17.847 17.812 18.625 C16.882 18.757 15.951 18.889 14.991 19.025 C8.638 19.883 2.416 20.406 -4 20 C-4 20.66 -4 21.32 -4 22 C-2.297 22.969 -2.297 22.969 0 24 C1.59 24.821 3.173 25.655 4.75 26.5 C5.549 26.923 6.348 27.346 7.172 27.781 C7.775 28.183 8.378 28.586 9 29 C9 29.66 9 30.32 9 31 C3.354 30.345 0.069 27.234 -4.281 23.812 C-8.322 21.119 -11.373 20.458 -16 22 C-15.481 22.436 -14.961 22.871 -14.426 23.32 C-3 33.078 -3 33.078 -3 37 C-7.944 36.576 -9.646 34.506 -13 31 C-14.479 29.745 -15.981 28.518 -17.5 27.312 C-18.232 26.731 -18.964 26.15 -19.719 25.551 C-24.259 22.464 -28.593 21.636 -34 21 C-34 21.66 -34 22.32 -34 23 C-33.438 23.084 -32.876 23.168 -32.297 23.254 C-29.295 24.229 -27.584 25.828 -25.25 27.938 C-24.451 28.648 -23.652 29.358 -22.828 30.09 C-21 32 -21 32 -21 34 C-25.77 34.304 -28.662 33.531 -32.875 31.312 C-33.395 31.041 -33.395 31.041 -36.027 29.664 C-39.178 27.9 -42.214 26.033 -45.184 23.98 C-49.551 21.623 -54.364 21.882 -59.211 21.902 C-59.565 21.903 -59.565 21.903 -61.357 21.907 C-62.892 21.911 -64.427 21.917 -65.962 21.925 C-68.413 21.938 -70.863 21.944 -73.314 21.949 C-79.416 21.962 -85.517 21.986 -91.619 22.01 C-97.579 22.034 -103.54 22.052 -109.5 22.062 C-109.914 22.063 -109.914 22.063 -112.007 22.067 C-122.074 22.079 -132.099 21.95 -142.152 21.362 C-150.872 20.855 -159.58 20.889 -168.312 20.938 C-169.951 20.943 -171.59 20.947 -173.229 20.951 C-177.152 20.962 -181.076 20.979 -185 21 C-185 20.01 -185 19.02 -185 18 C-185.33 18.495 -185.33 18.495 -187 21 C-188.866 21.367 -188.866 21.367 -191.158 21.356 C-192.016 21.359 -192.873 21.362 -193.757 21.366 C-194.684 21.353 -195.611 21.341 -196.566 21.328 C-197.516 21.326 -198.465 21.324 -199.443 21.322 C-201.451 21.316 -203.459 21.302 -205.468 21.281 C-208.553 21.25 -211.639 21.24 -214.725 21.234 C-216.672 21.225 -218.619 21.215 -220.566 21.203 C-221.496 21.199 -222.425 21.195 -223.382 21.19 C-224.236 21.181 -225.091 21.171 -225.971 21.161 C-226.727 21.154 -227.482 21.147 -228.261 21.14 C-230 21 -230 21 -231 20 C-231 20.33 -231 20.66 -231 21 C-234.96 21 -238.92 21 -243 21 C-242.835 20.505 -242.835 20.505 -242 18 C-242.66 18 -243.32 18 -244 18 C-244 18.99 -244 19.98 -244 21 C-247.812 21.058 -251.625 21.094 -255.438 21.125 C-255.982 21.133 -255.982 21.133 -258.736 21.176 C-259.771 21.182 -260.805 21.189 -261.871 21.195 C-262.829 21.206 -263.788 21.216 -264.775 21.227 C-265.509 21.152 -266.244 21.077 -267 21 C-267.165 20.67 -267.165 20.67 -268 19 C-268.526 19.163 -269.051 19.326 -269.593 19.494 C-272.614 20.129 -275.428 20.112 -278.516 20.098 C-279.766 20.094 -281.016 20.091 -282.305 20.088 C-282.956 20.084 -282.956 20.084 -286.25 20.062 C-286.909 20.06 -286.909 20.06 -290.242 20.049 C-293.495 20.037 -296.747 20.021 -300 20 C-299.34 18.68 -298.68 17.36 -298 16 C-302.875 17.75 -302.875 17.75 -304 20 C-306.25 20.266 -306.25 20.266 -309 20.25 C-309.908 20.255 -310.815 20.26 -311.75 20.266 C-312.492 20.178 -313.235 20.09 -314 20 C-314.33 19.34 -314.66 18.68 -315 18 C-315.33 18.66 -315.66 19.32 -316 20 C-316.99 19.67 -317.98 19.34 -319 19 C-318.67 18.34 -318.34 17.68 -318 17 C-318.33 15.68 -318.66 14.36 -319 13 C-312.4 13 -305.8 13 -299 13 C-299 13.66 -299 14.32 -299 15 C-298.34 15 -297.68 15 -297 15 C-296.67 14.34 -296.34 13.68 -296 13 C-293.539 12.808 -291.189 12.749 -288.726 12.773 C-287.965 12.773 -287.204 12.772 -286.42 12.772 C-283.893 12.773 -281.367 12.789 -278.84 12.805 C-277.092 12.808 -275.345 12.811 -273.598 12.813 C-268.99 12.821 -264.382 12.841 -259.773 12.863 C-255.075 12.883 -250.376 12.892 -245.678 12.902 C-236.452 12.924 -227.226 12.958 -218 13 C-218 14.32 -218 15.64 -218 17 C-218.66 17 -219.32 17 -220 17 C-220 17.66 -220 18.32 -220 19 C-219.01 19 -218.02 19 -217 19 C-217 17.02 -217 15.04 -217 13 C-215.835 13.005 -214.669 13.01 -213.469 13.016 C-171.995 13.186 -171.995 13.186 -152.785 12.356 C-133.142 11.565 -113.458 11.907 -93.809 12.324 C-92.366 12.354 -90.923 12.383 -89.48 12.413 C-77.658 12.656 -77.658 12.656 -71.927 12.799 C-68.269 12.89 -64.61 12.966 -60.95 13.032 C-59.578 13.06 -58.206 13.093 -56.835 13.132 C-54.94 13.185 -53.045 13.217 -51.15 13.249 C-50.079 13.273 -49.008 13.298 -47.905 13.323 C-43.237 12.804 -40.63 10.56 -37.188 7.5 C-31.38 2.584 -25.426 1.602 -18 2 C-21.641 5.993 -25.534 8.797 -30.109 11.668 C-32 13 -32 13 -33 15 C-24.64 12.272 -18.738 9.7 -13 3 C-8.587 -0.782 -5.651 -1.413 0 0 Z M19 12 C18.67 12.66 18.34 13.32 18 14 C18.99 13.67 19.98 13.34 21 13 C20.34 12.67 19.68 12.34 19 12 Z M24 14 C24 14.66 24 15.32 24 16 C24.66 16 25.32 16 26 16 C26 15.34 26 14.68 26 14 C25.34 14 24.68 14 24 14 Z M-306 15 C-305 17 -305 17 -305 17 Z M-240 16 C-240 16.99 -240 17.98 -240 19 C-239.01 19 -238.02 19 -237 19 C-237.33 18.01 -237.66 17.02 -238 16 C-238.66 16 -239.32 16 -240 16 Z M-180 16 C-180 16.66 -180 17.32 -180 18 C-179.34 18 -178.68 18 -178 18 C-178 17.34 -178 16.68 -178 16 C-178.66 16 -179.32 16 -180 16 Z M-256 17 C-256 17.66 -256 18.32 -256 19 C-255.01 18.67 -254.02 18.34 -253 18 C-253.99 17.67 -254.98 17.34 -256 17 Z " fill="#E9E1F4" transform="translate(833,1021)"/>
<path d="M0 0 C1.537 3.075 -0.061 4.69 -1.438 7.75 C-6.715 21.122 -4.623 34.335 3.188 46.25 C8.492 53.311 14.933 58.7 22.566 63.09 C23.039 63.39 23.513 63.691 24 64 C24 64.33 24 64.66 24 65 C11.156 65 -2.669 56.421 -12 48 C-12 47.34 -12 46.68 -12 46 C-11.361 45.938 -10.721 45.876 -10.062 45.812 C-8 45 -8 45 -7.25 42.438 C-7.167 41.633 -7.085 40.829 -7 40 C-8.65 39.67 -10.3 39.34 -12 39 C-12.061 38.047 -12.121 37.095 -12.184 36.113 C-12.225 35.486 -12.225 35.486 -12.438 32.312 C-12.519 31.071 -12.6 29.83 -12.684 28.551 C-13 25 -13 25 -13.66 22.23 C-14 20 -14 20 -12 17 C-12.557 17.33 -13.114 17.66 -13.688 18 C-16.303 19.131 -18.181 19.157 -21 19 C-20.25 17 -20.25 17 -19 15 C-17.68 15 -16.36 15 -15 15 C-15.33 14.01 -15.66 13.02 -16 12 C-14.68 11.34 -13.36 10.68 -12 10 C-12.66 11.65 -13.32 13.3 -14 15 C-13.01 15 -12.02 15 -11 15 C-11 11.04 -11 7.08 -11 3 C-10.34 3 -9.68 3 -9 3 C-9 4.98 -9 6.96 -9 9 C-3.542 7.635 -2.381 4.763 0 0 Z M-9 33 C-9 33.66 -9 34.32 -9 35 C-8.34 35 -7.68 35 -7 35 C-7 34.34 -7 33.68 -7 33 C-7.66 33 -8.32 33 -9 33 Z " fill="#E9E1F4" transform="translate(204,1046)"/>
<path d="M0 0 C0.772 0.17 1.544 0.34 2.34 0.514 C7.678 1.794 7.678 1.794 8.812 4.062 C8.22 4.047 7.628 4.031 7.019 4.015 C-13.202 3.553 -31.631 6.184 -51.188 11.062 C-54.184 11.748 -57.184 12.407 -60.188 13.062 C-58.859 10.406 -57.948 10.565 -55.125 9.938 C-54.392 9.77 -53.658 9.602 -52.902 9.43 C-52.336 9.309 -51.771 9.187 -51.188 9.062 C-51.188 8.402 -51.188 7.743 -51.188 7.062 C-51.848 7.062 -52.507 7.062 -53.188 7.062 C-53.188 6.402 -53.188 5.743 -53.188 5.062 C-53.848 5.062 -54.507 5.062 -55.188 5.062 C-55.188 6.053 -55.188 7.043 -55.188 8.062 C-58.488 7.733 -61.788 7.402 -65.188 7.062 C-65.188 6.402 -65.188 5.743 -65.188 5.062 C-57.68 0.699 -48.616 -0.528 -40.188 -1.938 C-39.778 -2.01 -39.778 -2.01 -37.707 -2.379 C-25.341 -4.108 -12.116 -2.67 0 0 Z M-51.188 5.062 C-51.188 5.723 -51.188 6.382 -51.188 7.062 C-50.527 7.062 -49.868 7.062 -49.188 7.062 C-49.188 6.402 -49.188 5.743 -49.188 5.062 C-49.848 5.062 -50.507 5.062 -51.188 5.062 Z " fill="#E9E1F4" transform="translate(420.1875,1111.9375)"/></g></symbol></defs><rect x="1" y="1" width="631" height="244" rx="26" fill="#EBE6F1" stroke="#D8CEE6" stroke-width="1.5"/><use href="#mk" x="42" y="42.0" width="164.6" height="162"/><g transform="translate(250.6,104.7)"><g transform="scale(0.06400,-0.06400)" fill="#5D4E88"><path d="M490 7 343 317Q342 320 339 320H169Q165 320 165 316V10Q165 0 155 0H104Q94 0 94 10V690Q94 700 104 700H363Q449 700 502.0 646.5Q555 593 555 507Q555 437 517.0 388.0Q479 339 414 325Q410 323 412 320L562 12Q563 10 563 7Q563 0 555 0H502Q493 0 490 7ZM165 634V381Q165 377 169 377H355Q413 377 449.0 413.0Q485 449 485 507Q485 565 449.0 601.5Q413 638 355 638H169Q165 638 165 634Z" transform="translate(0.0,0)"/><path d="M396 506H447Q457 506 457 496V10Q457 0 447 0H396Q386 0 386 10V53Q386 55 384.0 56.0Q382 57 381 55Q339 -7 248 -7Q200 -7 159.5 12.5Q119 32 95.5 69.0Q72 106 72 158V496Q72 506 82 506H133Q143 506 143 496V179Q143 122 175.0 88.5Q207 55 262 55Q319 55 352.5 89.0Q386 123 386 179V496Q386 506 396 506Z" transform="translate(612.0,0)"/><path d="M80 10V690Q80 700 90 700H141Q151 700 151 690V10Q151 0 141 0H90Q80 0 80 10Z" transform="translate(1148.0,0)"/><path d="M472 268V236Q472 226 462 226H139Q135 226 135 222Q137 167 141 151Q152 106 188.0 80.0Q224 54 280 54Q322 54 354.0 73.0Q386 92 404 127Q410 136 418 131L457 108Q465 103 461 94Q436 46 386.0 18.5Q336 -9 271 -9Q200 -8 152.0 25.0Q104 58 83 117Q65 165 65 255Q65 297 66.5 323.5Q68 350 74 371Q91 436 142.5 475.0Q194 514 267 514Q358 514 407.0 468.0Q456 422 468 338Q472 310 472 268ZM143 358Q137 337 135 290Q135 286 139 286H398Q402 286 402 290Q400 335 396 354Q385 399 351.5 425.5Q318 452 267 452Q218 452 185.5 426.5Q153 401 143 358Z" transform="translate(1378.0,0)"/></g></g><g transform="translate(372.9,104.7)"><g transform="scale(0.06400,-0.06400)" fill="#5D4E88"><path d="M525 700H642Q647 700 650.5 696.5Q654 693 654 688V12Q654 7 650.5 3.5Q647 0 642 0H525Q520 0 516.5 3.5Q513 7 513 12V453Q513 457 511.0 457.0Q509 457 507 454L401 288Q396 280 387 280H328Q319 280 314 288L208 454Q206 457 204.0 456.5Q202 456 202 452V12Q202 7 198.5 3.5Q195 0 190 0H73Q68 0 64.5 3.5Q61 7 61 12V688Q61 693 64.5 696.5Q68 700 73 700H190Q199 700 204 692L354 459Q357 453 360 459L511 692Q516 700 525 700Z" transform="translate(0.0,0)"/><path d="M53 156Q39 203 39 258Q39 317 53 364Q76 438 136.0 480.0Q196 522 280 522Q362 522 420.0 480.5Q478 439 502 365Q518 315 518 260Q518 206 504 159Q482 81 422.5 36.5Q363 -8 279 -8Q195 -8 135.0 36.0Q75 80 53 156ZM368 188Q376 220 376 258Q376 300 368 329Q357 363 334.0 382.0Q311 401 278 401Q244 401 221.5 382.0Q199 363 189 329Q181 305 181 258Q181 213 188 188Q198 153 221.5 133.0Q245 113 279 113Q312 113 335.0 133.0Q358 153 368 188Z" transform="translate(715.0,0)"/><path d="M498 340V12Q498 7 494.5 3.5Q491 0 486 0H369Q364 0 360.5 3.5Q357 7 357 12V311Q357 351 334.5 376.0Q312 401 275 401Q238 401 215.5 376.0Q193 351 193 311V12Q193 7 189.5 3.5Q186 0 181 0H64Q59 0 55.5 3.5Q52 7 52 12V502Q52 507 55.5 510.5Q59 514 64 514H181Q186 514 189.5 510.5Q193 507 193 502V467Q193 464 195.0 463.0Q197 462 198 464Q239 522 320 522Q400 522 449.0 473.0Q498 424 498 340Z" transform="translate(1272.0,0)"/><path d="M52 12V688Q52 693 55.5 696.5Q59 700 64 700H181Q186 700 189.5 696.5Q193 693 193 688V351Q193 348 195.0 347.5Q197 347 199 349L335 507Q342 514 350 514H483Q493 514 493 507Q493 504 490 499L363 338Q361 334 362 331L511 14Q513 10 513 8Q513 0 502 0H379Q369 0 365 9L266 243Q265 245 262.5 245.5Q260 246 259 244L195 164Q193 160 193 158V12Q193 7 189.5 3.5Q186 0 181 0H64Q59 0 55.5 3.5Q52 7 52 12Z" transform="translate(1819.0,0)"/><path d="M511 225Q510 213 498 213H189Q183 213 185 208Q188 188 196 168Q222 112 302 112Q366 113 403 164Q407 170 412 170Q415 170 419 166L491 95Q496 90 496 86Q496 84 492 78Q459 37 407.0 14.5Q355 -8 293 -8Q207 -8 147.5 31.0Q88 70 62 140Q41 190 41 271Q41 326 56 368Q79 439 136.5 481.0Q194 523 273 523Q373 523 433.5 465.0Q494 407 507 310Q513 272 511 225ZM191 342Q187 329 184 310Q184 305 189 305H362Q368 305 366 310Q361 339 361 338Q352 368 329.5 384.5Q307 401 274 401Q211 401 191 342Z" transform="translate(2352.0,0)"/><path d="M42 -187V-95Q42 -90 45.5 -86.5Q49 -83 54 -83Q96 -82 120.5 -76.0Q145 -70 159.5 -53.0Q174 -36 182 -3Q183 -1 182 3L18 501Q17 503 17 506Q17 515 28 515H153Q164 515 167 505L251 181Q252 178 254.0 178.0Q256 178 257 181L341 505Q344 515 355 515H477Q483 515 485.5 511.5Q488 508 486 501L313 -19Q288 -92 262.0 -128.5Q236 -165 189.0 -182.0Q142 -199 56 -199H49Q46 -199 44.0 -195.5Q42 -192 42 -187Z" transform="translate(2898.0,0)"/></g></g><g transform="translate(250.6,154.4)"><g transform="scale(0.01650,-0.01650)" fill="#7B6BA2"><path d="M495 8 459 125Q458 128 455 128H174Q171 128 170 125L134 8Q131 0 122 0H41Q30 0 33 11L252 692Q255 700 264 700H364Q373 700 376 692L597 11L598 7Q598 0 589 0H507Q498 0 495 8ZM199 204H429Q431 204 432.5 205.5Q434 207 433 209L317 580Q316 582 314.0 582.0Q312 582 311 580L195 209Q194 207 195.5 205.5Q197 204 199 204Z" transform="translate(0.0,0)"/><path d="M475 340V10Q475 0 465 0H389Q379 0 379 10V321Q379 371 350.0 402.0Q321 433 273 433Q226 433 196.0 402.0Q166 371 166 322V10Q166 0 156 0H80Q70 0 70 10V499Q70 509 80 509H156Q166 509 166 499V463Q166 461 167.5 460.0Q169 459 170 461Q213 516 297 516Q379 516 427.0 468.5Q475 421 475 340Z" transform="translate(866.4,0)"/><path d="M485 226Q485 216 475 216H156Q152 216 152 212Q152 178 158 160Q169 120 202.5 97.5Q236 75 287 75Q361 75 401 136Q406 146 414 139L471 101Q478 95 474 88Q446 43 394.5 17.0Q343 -9 278 -9Q205 -9 155.0 23.0Q105 55 80 114Q56 173 56 257Q56 330 67 368Q85 437 139.0 477.0Q193 517 270 517Q371 517 421.0 466.5Q471 416 482 318Q486 277 485 226ZM161 355Q154 333 152 299Q152 295 156 295H385Q389 295 389 299Q387 332 383 348Q373 387 343.5 410.5Q314 434 270 434Q227 434 199.0 412.5Q171 391 161 355Z" transform="translate(1426.5,0)"/><path d="M311 430H203Q199 430 199 426V161Q199 119 218.0 100.5Q237 82 277 82H306Q316 82 316 72V10Q316 0 306 0Q274 -2 260 -2Q184 -2 145.5 25.5Q107 53 107 127V426Q107 430 103 430H42Q32 430 32 440V499Q32 509 42 509H103Q107 509 107 513V631Q107 641 117 641H189Q199 641 199 631V513Q199 509 203 509H311Q321 509 321 499V440Q321 430 311 430Z" transform="translate(1980.7,0)"/><path d="M172 8 28 498 27 501Q27 509 37 509H115Q124 509 126 500L221 137Q222 135 223.5 135.0Q225 135 226 137L323 500Q325 509 334 509H403Q412 509 414 500L513 138Q514 136 515.5 136.0Q517 136 518 138L617 500Q619 509 628 509L705 508Q710 508 712.5 505.0Q715 502 714 497L569 8Q566 0 558 0H480Q472 0 469 8L371 346Q370 348 368.5 348.0Q367 348 366 346L273 9Q271 0 262 0H183Q175 0 172 8Z" transform="translate(2367.9,0)"/><path d="M72 134Q54 188 54 256Q54 327 71 376Q93 442 148.0 479.5Q203 517 279 517Q351 517 404.5 479.5Q458 442 481 377Q499 326 499 257Q499 187 481 134Q459 67 405.0 29.5Q351 -8 278 -8Q204 -8 149.0 29.5Q94 67 72 134ZM391 161Q402 199 402 255Q402 311 392 348Q379 389 349.0 411.5Q319 434 276 434Q235 434 205.0 411.5Q175 389 162 348Q151 313 151 255Q151 197 162 161Q174 120 204.5 97.5Q235 75 278 75Q318 75 348.0 97.5Q378 120 391 161Z" transform="translate(3129.1,0)"/><path d="M351 501Q358 498 356 489L340 414Q339 405 328 408Q311 415 288 415L274 414Q227 412 196.5 381.5Q166 351 166 302V10Q166 0 156 0H80Q70 0 70 10V499Q70 509 80 509H156Q166 509 166 499V446Q166 443 167.5 442.5Q169 442 170 444Q215 514 293 514Q325 514 351 501Z" transform="translate(3702.3,0)"/><path d="M70 10V690Q70 700 80 700H156Q166 700 166 690V305Q166 303 168.0 302.0Q170 301 171 303L356 504Q360 509 368 509H457Q463 509 464.5 505.5Q466 502 462 497L333 348Q331 344 332 342L485 12L486 8Q486 0 477 0H397Q389 0 386 8L267 280Q265 285 262 281L168 177Q166 173 166 172V10Q166 0 156 0H80Q70 0 70 10Z" transform="translate(4091.5,0)"/><path d="M35 274V337Q35 347 45 347H354Q364 347 364 337V274Q364 264 354 264H45Q35 264 35 274Z" transform="translate(4621.6,0)"/><path d="M208 525V513Q208 509 212 509H317Q327 509 327 499V431Q327 421 317 421H212Q208 421 208 417V10Q208 0 198 0H122Q112 0 112 10V417Q112 421 108 421H41Q31 421 31 431V499Q31 509 41 509H108Q112 509 112 513V531Q112 597 127.5 633.0Q143 669 180.0 684.5Q217 700 284 700H318Q328 700 328 690V626Q328 616 318 616H294Q244 616 226.0 597.0Q208 578 208 525Z" transform="translate(5039.8,0)"/><path d="M351 501Q358 498 356 489L340 414Q339 405 328 408Q311 415 288 415L274 414Q227 412 196.5 381.5Q166 351 166 302V10Q166 0 156 0H80Q70 0 70 10V499Q70 509 80 509H156Q166 509 166 499V446Q166 443 167.5 442.5Q169 442 170 444Q215 514 293 514Q325 514 351 501Z" transform="translate(5425.0,0)"/><path d="M485 226Q485 216 475 216H156Q152 216 152 212Q152 178 158 160Q169 120 202.5 97.5Q236 75 287 75Q361 75 401 136Q406 146 414 139L471 101Q478 95 474 88Q446 43 394.5 17.0Q343 -9 278 -9Q205 -9 155.0 23.0Q105 55 80 114Q56 173 56 257Q56 330 67 368Q85 437 139.0 477.0Q193 517 270 517Q371 517 421.0 466.5Q471 416 482 318Q486 277 485 226ZM161 355Q154 333 152 299Q152 295 156 295H385Q389 295 389 299Q387 332 383 348Q373 387 343.5 410.5Q314 434 270 434Q227 434 199.0 412.5Q171 391 161 355Z" transform="translate(5814.2,0)"/><path d="M485 226Q485 216 475 216H156Q152 216 152 212Q152 178 158 160Q169 120 202.5 97.5Q236 75 287 75Q361 75 401 136Q406 146 414 139L471 101Q478 95 474 88Q446 43 394.5 17.0Q343 -9 278 -9Q205 -9 155.0 23.0Q105 55 80 114Q56 173 56 257Q56 330 67 368Q85 437 139.0 477.0Q193 517 270 517Q371 517 421.0 466.5Q471 416 482 318Q486 277 485 226ZM161 355Q154 333 152 299Q152 295 156 295H385Q389 295 389 299Q387 332 383 348Q373 387 343.5 410.5Q314 434 270 434Q227 434 199.0 412.5Q171 391 161 355Z" transform="translate(6368.4,0)"/><path d="M48 131V142Q48 152 58 152H130Q140 152 140 142V137Q140 109 170.5 88.0Q201 67 248 67Q293 67 321.0 86.5Q349 106 349 136Q349 165 323.0 179.5Q297 194 239 210Q182 226 143.5 242.5Q105 259 78.5 289.5Q52 320 52 368Q52 435 104.5 474.5Q157 514 244 514Q302 514 346.5 495.5Q391 477 415.0 444.0Q439 411 439 370V367Q439 357 429 357H359Q349 357 349 367V370Q349 399 320.5 418.5Q292 438 243 438Q199 438 171.5 421.0Q144 404 144 375Q144 346 170.5 331.0Q197 316 256 299Q314 283 352.5 267.5Q391 252 418.0 221.5Q445 191 445 142Q445 74 391.5 34.0Q338 -6 249 -6Q189 -6 143.5 12.0Q98 30 73.0 61.5Q48 93 48 131Z" transform="translate(7140.7,0)"/><path d="M64 653Q64 681 82.0 699.0Q100 717 128 717Q156 717 174.0 699.0Q192 681 192 653Q192 625 174.0 607.0Q156 589 128 589Q100 589 82.0 607.0Q64 625 64 653ZM78 11V499Q78 509 88 509H164Q174 509 174 499V11Q174 1 164 1H88Q78 1 78 11Z" transform="translate(7645.9,0)"/><path d="M763 344V10Q763 0 753 0H678Q668 0 668 10V324Q668 374 640.5 403.5Q613 433 567 433Q521 433 492.0 404.0Q463 375 463 326V10Q463 0 453 0H378Q368 0 368 10V324Q368 374 340.5 403.5Q313 433 267 433Q221 433 193.5 404.0Q166 375 166 326V10Q166 0 156 0H80Q70 0 70 10V499Q70 509 80 509H156Q166 509 166 499V465Q166 463 167.5 462.0Q169 461 171 463Q215 516 299 516Q350 516 386.0 496.5Q422 477 442 439Q445 435 448 439Q472 478 511.5 497.0Q551 516 599 516Q675 516 719.0 470.5Q763 425 763 344Z" transform="translate(7919.1,0)"/><path d="M383 509H458Q468 509 468 499V10Q468 0 458 0H383Q373 0 373 10V47Q373 49 371.5 49.5Q370 50 368 48Q328 -7 245 -7Q196 -7 154.5 12.0Q113 31 88.0 68.0Q63 105 63 158V499Q63 509 73 509H148Q158 509 158 499V188Q158 136 185.5 106.0Q213 76 263 76Q313 76 343.0 106.5Q373 137 373 188V499Q373 509 383 509Z" transform="translate(8763.3,0)"/><path d="M70 10V690Q70 700 80 700H156Q166 700 166 690V10Q166 0 156 0H80Q70 0 70 10Z" transform="translate(9319.5,0)"/><path d="M457 348V10Q457 0 447 0H371Q361 0 361 10V46Q361 51 356 48Q330 21 292.5 6.5Q255 -8 209 -8Q135 -8 86.5 29.5Q38 67 38 143Q38 221 92.5 265.5Q147 310 245 310H357Q361 310 361 314V341Q361 385 335.5 409.5Q310 434 258 434Q216 434 189.5 417.5Q163 401 157 373Q154 363 145 364L64 375Q54 377 55 383Q63 442 118.0 479.5Q173 517 256 517Q317 517 362.5 495.5Q408 474 432.5 435.5Q457 397 457 348ZM361 172V231Q361 235 357 235H263Q204 235 169.0 212.0Q134 189 134 148Q134 111 160.5 92.0Q187 73 230 73Q283 73 322.0 101.0Q361 129 361 172Z" transform="translate(9572.6,0)"/><path d="M311 430H203Q199 430 199 426V161Q199 119 218.0 100.5Q237 82 277 82H306Q316 82 316 72V10Q316 0 306 0Q274 -2 260 -2Q184 -2 145.5 25.5Q107 53 107 127V426Q107 430 103 430H42Q32 430 32 440V499Q32 509 42 509H103Q107 509 107 513V631Q107 641 117 641H189Q199 641 199 631V513Q199 509 203 509H311Q321 509 321 499V440Q321 430 311 430Z" transform="translate(10107.8,0)"/><path d="M72 134Q54 188 54 256Q54 327 71 376Q93 442 148.0 479.5Q203 517 279 517Q351 517 404.5 479.5Q458 442 481 377Q499 326 499 257Q499 187 481 134Q459 67 405.0 29.5Q351 -8 278 -8Q204 -8 149.0 29.5Q94 67 72 134ZM391 161Q402 199 402 255Q402 311 392 348Q379 389 349.0 411.5Q319 434 276 434Q235 434 205.0 411.5Q175 389 162 348Q151 313 151 255Q151 197 162 161Q174 120 204.5 97.5Q235 75 278 75Q318 75 348.0 97.5Q378 120 391 161Z" transform="translate(10495.0,0)"/><path d="M351 501Q358 498 356 489L340 414Q339 405 328 408Q311 415 288 415L274 414Q227 412 196.5 381.5Q166 351 166 302V10Q166 0 156 0H80Q70 0 70 10V499Q70 509 80 509H156Q166 509 166 499V446Q166 443 167.5 442.5Q169 442 170 444Q215 514 293 514Q325 514 351 501Z" transform="translate(11068.2,0)"/></g></g><g transform="translate(250.6,182.8)"><g transform="scale(0.01650,-0.01650)" fill="#7B6BA2"><path d="M208 525V513Q208 509 212 509H317Q327 509 327 499V431Q327 421 317 421H212Q208 421 208 417V10Q208 0 198 0H122Q112 0 112 10V417Q112 421 108 421H41Q31 421 31 431V499Q31 509 41 509H108Q112 509 112 513V531Q112 597 127.5 633.0Q143 669 180.0 684.5Q217 700 284 700H318Q328 700 328 690V626Q328 616 318 616H294Q244 616 226.0 597.0Q208 578 208 525Z" transform="translate(0.0,0)"/><path d="M72 134Q54 188 54 256Q54 327 71 376Q93 442 148.0 479.5Q203 517 279 517Q351 517 404.5 479.5Q458 442 481 377Q499 326 499 257Q499 187 481 134Q459 67 405.0 29.5Q351 -8 278 -8Q204 -8 149.0 29.5Q94 67 72 134ZM391 161Q402 199 402 255Q402 311 392 348Q379 389 349.0 411.5Q319 434 276 434Q235 434 205.0 411.5Q175 389 162 348Q151 313 151 255Q151 197 162 161Q174 120 204.5 97.5Q235 75 278 75Q318 75 348.0 97.5Q378 120 391 161Z" transform="translate(385.2,0)"/><path d="M351 501Q358 498 356 489L340 414Q339 405 328 408Q311 415 288 415L274 414Q227 412 196.5 381.5Q166 351 166 302V10Q166 0 156 0H80Q70 0 70 10V499Q70 509 80 509H156Q166 509 166 499V446Q166 443 167.5 442.5Q169 442 170 444Q215 514 293 514Q325 514 351 501Z" transform="translate(958.4,0)"/><path d="M455 359Q561 314 561 192Q561 100 500.0 50.0Q439 0 341 0H92Q82 0 82 10V690Q82 700 92 700H333Q437 700 494.5 652.5Q552 605 552 514Q552 406 455 365Q450 362 455 359ZM178 613V402Q178 398 182 398H333Q391 398 424.5 427.0Q458 456 458 506Q458 557 424.5 587.0Q391 617 333 617H182Q178 617 178 613ZM465 201Q465 255 431.0 286.5Q397 318 338 318H182Q178 318 178 314V88Q178 84 182 84H341Q398 84 431.5 115.5Q465 147 465 201Z" transform="translate(1565.7,0)"/><path d="M64 653Q64 681 82.0 699.0Q100 717 128 717Q156 717 174.0 699.0Q192 681 192 653Q192 625 174.0 607.0Q156 589 128 589Q100 589 82.0 607.0Q64 625 64 653ZM78 11V499Q78 509 88 509H164Q174 509 174 499V11Q174 1 164 1H88Q78 1 78 11Z" transform="translate(2207.9,0)"/><path d="M72 134Q54 188 54 256Q54 327 71 376Q93 442 148.0 479.5Q203 517 279 517Q351 517 404.5 479.5Q458 442 481 377Q499 326 499 257Q499 187 481 134Q459 67 405.0 29.5Q351 -8 278 -8Q204 -8 149.0 29.5Q94 67 72 134ZM391 161Q402 199 402 255Q402 311 392 348Q379 389 349.0 411.5Q319 434 276 434Q235 434 205.0 411.5Q175 389 162 348Q151 313 151 255Q151 197 162 161Q174 120 204.5 97.5Q235 75 278 75Q318 75 348.0 97.5Q378 120 391 161Z" transform="translate(2481.1,0)"/><path d="M504 700H580Q590 700 590 690V10Q590 0 580 0H507Q500 0 495 7L182 518Q181 521 179.0 520.5Q177 520 177 517L178 10Q178 0 168 0H92Q82 0 82 10V690Q82 700 92 700H166Q173 700 178 693L490 182Q491 179 493.0 179.5Q495 180 495 183L494 690Q494 700 504 700Z" transform="translate(3054.3,0)"/><path d="M485 226Q485 216 475 216H156Q152 216 152 212Q152 178 158 160Q169 120 202.5 97.5Q236 75 287 75Q361 75 401 136Q406 146 414 139L471 101Q478 95 474 88Q446 43 394.5 17.0Q343 -9 278 -9Q205 -9 155.0 23.0Q105 55 80 114Q56 173 56 257Q56 330 67 368Q85 437 139.0 477.0Q193 517 270 517Q371 517 421.0 466.5Q471 416 482 318Q486 277 485 226ZM161 355Q154 333 152 299Q152 295 156 295H385Q389 295 389 299Q387 332 383 348Q373 387 343.5 410.5Q314 434 270 434Q227 434 199.0 412.5Q171 391 161 355Z" transform="translate(3745.5,0)"/><path d="M311 430H203Q199 430 199 426V161Q199 119 218.0 100.5Q237 82 277 82H306Q316 82 316 72V10Q316 0 306 0Q274 -2 260 -2Q184 -2 145.5 25.5Q107 53 107 127V426Q107 430 103 430H42Q32 430 32 440V499Q32 509 42 509H103Q107 509 107 513V631Q107 641 117 641H189Q199 641 199 631V513Q199 509 203 509H311Q321 509 321 499V440Q321 430 311 430Z" transform="translate(4299.6,0)"/><path d="M63 222V478Q63 547 93.5 599.0Q124 651 179.5 679.5Q235 708 307 708Q379 708 434.0 680.0Q489 652 519.5 602.5Q550 553 550 491V480Q550 470 540 470H464Q454 470 454 480V489Q454 549 413.5 586.5Q373 624 307 624Q240 624 199.5 585.0Q159 546 159 481V219Q159 154 201.0 115.0Q243 76 311 76Q377 76 415.5 110.5Q454 145 454 205V282Q454 286 450 286H315Q305 286 305 296V358Q305 368 315 368H540Q550 368 550 358V231Q550 116 484.5 54.0Q419 -8 307 -8Q235 -8 179.5 20.5Q124 49 93.5 101.5Q63 154 63 222Z" transform="translate(4686.8,0)"/><path d="M485 226Q485 216 475 216H156Q152 216 152 212Q152 178 158 160Q169 120 202.5 97.5Q236 75 287 75Q361 75 401 136Q406 146 414 139L471 101Q478 95 474 88Q446 43 394.5 17.0Q343 -9 278 -9Q205 -9 155.0 23.0Q105 55 80 114Q56 173 56 257Q56 330 67 368Q85 437 139.0 477.0Q193 517 270 517Q371 517 421.0 466.5Q471 416 482 318Q486 277 485 226ZM161 355Q154 333 152 299Q152 295 156 295H385Q389 295 389 299Q387 332 383 348Q373 387 343.5 410.5Q314 434 270 434Q227 434 199.0 412.5Q171 391 161 355Z" transform="translate(5318.0,0)"/><path d="M475 340V10Q475 0 465 0H389Q379 0 379 10V321Q379 371 350.0 402.0Q321 433 273 433Q226 433 196.0 402.0Q166 371 166 322V10Q166 0 156 0H80Q70 0 70 10V499Q70 509 80 509H156Q166 509 166 499V463Q166 461 167.5 460.0Q169 459 170 461Q213 516 297 516Q379 516 427.0 468.5Q475 421 475 340Z" transform="translate(5872.2,0)"/><path d="M763 344V10Q763 0 753 0H678Q668 0 668 10V324Q668 374 640.5 403.5Q613 433 567 433Q521 433 492.0 404.0Q463 375 463 326V10Q463 0 453 0H378Q368 0 368 10V324Q368 374 340.5 403.5Q313 433 267 433Q221 433 193.5 404.0Q166 375 166 326V10Q166 0 156 0H80Q70 0 70 10V499Q70 509 80 509H156Q166 509 166 499V465Q166 463 167.5 462.0Q169 461 171 463Q215 516 299 516Q350 516 386.0 496.5Q422 477 442 439Q445 435 448 439Q472 478 511.5 497.0Q551 516 599 516Q675 516 719.0 470.5Q763 425 763 344Z" transform="translate(6650.5,0)"/><path d="M72 134Q54 188 54 256Q54 327 71 376Q93 442 148.0 479.5Q203 517 279 517Q351 517 404.5 479.5Q458 442 481 377Q499 326 499 257Q499 187 481 134Q459 67 405.0 29.5Q351 -8 278 -8Q204 -8 149.0 29.5Q94 67 72 134ZM391 161Q402 199 402 255Q402 311 392 348Q379 389 349.0 411.5Q319 434 276 434Q235 434 205.0 411.5Q175 389 162 348Q151 313 151 255Q151 197 162 161Q174 120 204.5 97.5Q235 75 278 75Q318 75 348.0 97.5Q378 120 391 161Z" transform="translate(7494.7,0)"/><path d="M396 700H472Q482 700 482 690V10Q482 0 472 0H396Q386 0 386 10V43Q386 45 384.5 46.0Q383 47 381 45Q359 20 329.0 6.0Q299 -8 264 -8Q192 -8 144.5 27.5Q97 63 75 128Q56 181 56 256Q56 326 72 377Q93 443 141.0 480.0Q189 517 264 517Q298 517 328.5 503.5Q359 490 381 465Q383 463 384.5 464.0Q386 465 386 467V690Q386 700 396 700ZM384 255Q384 339 359 383Q330 434 274 434Q214 434 185 386Q153 336 153 254Q153 177 178 130Q207 75 273 75Q331 75 361 129Q384 171 384 255Z" transform="translate(8067.9,0)"/><path d="M485 226Q485 216 475 216H156Q152 216 152 212Q152 178 158 160Q169 120 202.5 97.5Q236 75 287 75Q361 75 401 136Q406 146 414 139L471 101Q478 95 474 88Q446 43 394.5 17.0Q343 -9 278 -9Q205 -9 155.0 23.0Q105 55 80 114Q56 173 56 257Q56 330 67 368Q85 437 139.0 477.0Q193 517 270 517Q371 517 421.0 466.5Q471 416 482 318Q486 277 485 226ZM161 355Q154 333 152 299Q152 295 156 295H385Q389 295 389 299Q387 332 383 348Q373 387 343.5 410.5Q314 434 270 434Q227 434 199.0 412.5Q171 391 161 355Z" transform="translate(8639.1,0)"/><path d="M70 10V690Q70 700 80 700H156Q166 700 166 690V10Q166 0 156 0H80Q70 0 70 10Z" transform="translate(9193.3,0)"/><path d="M48 131V142Q48 152 58 152H130Q140 152 140 142V137Q140 109 170.5 88.0Q201 67 248 67Q293 67 321.0 86.5Q349 106 349 136Q349 165 323.0 179.5Q297 194 239 210Q182 226 143.5 242.5Q105 259 78.5 289.5Q52 320 52 368Q52 435 104.5 474.5Q157 514 244 514Q302 514 346.5 495.5Q391 477 415.0 444.0Q439 411 439 370V367Q439 357 429 357H359Q349 357 349 367V370Q349 399 320.5 418.5Q292 438 243 438Q199 438 171.5 421.0Q144 404 144 375Q144 346 170.5 331.0Q197 316 256 299Q314 283 352.5 267.5Q391 252 418.0 221.5Q445 191 445 142Q445 74 391.5 34.0Q338 -6 249 -6Q189 -6 143.5 12.0Q98 30 73.0 61.5Q48 93 48 131Z" transform="translate(9446.5,0)"/></g></g></svg>
